<svg width="380" height="270" viewBox="0 0 380 270" fill="none" xmlns="http://www.w3.org/2000/svg">
<path opacity="0.8" d="M254.337 41.2412L254.338 41.2427C272.314 61.897 293.789 80.2351 313.731 97.2302C333.671 114.224 353.348 132.747 366.322 156.123C375.714 173.069 380.176 192.262 378.874 209.79C377.573 227.315 370.514 243.145 356.895 253.437C345.608 261.956 334.967 264.353 320.668 266.351C271.658 273.109 219.859 267.538 169.815 251.076L169.659 251.551L169.815 251.076C147.999 243.901 126.636 234.723 105.975 223.544C83.2069 211.179 47.2634 187.188 23.9645 159.395C12.3141 145.497 3.86337 130.693 1.76094 115.953C-0.336761 101.246 3.87629 86.548 17.6716 72.7942C26.5653 63.9401 37.2154 60.8784 48.764 60.6001C59.3537 60.3449 70.6568 62.4293 82.0212 64.5251C83.0754 64.7195 84.1302 64.914 85.1849 65.1068C97.5794 67.3718 109.972 69.3926 121.368 68.054C132.795 66.7117 143.226 61.9917 151.678 50.8025L151.679 50.8012C155.253 46.0383 158.443 40.6598 161.621 35.2561L161.969 34.6648C165.036 29.4483 168.107 24.2266 171.534 19.4815C178.641 9.64025 187.225 1.92711 200.337 0.670097C212.218 -0.460843 221.874 5.19638 230.505 13.4172C234.82 17.5271 238.863 22.2635 242.788 27.0872C244.034 28.6183 245.269 30.1596 246.497 31.6921C249.131 34.9785 251.732 38.2244 254.337 41.2412Z" stroke="#BA975F"/>
</svg>
