<svg width="378" height="283" viewBox="0 0 378 283" fill="none" xmlns="http://www.w3.org/2000/svg">
<path opacity="0.8" d="M264.443 47.2609L264.444 47.2625C280.874 69.8642 301.069 90.4238 319.825 109.482C338.579 128.538 356.931 149.127 368.034 174.052C376.071 192.119 378.894 212.032 376.005 229.737C373.117 247.439 364.527 262.905 349.759 272.155C337.522 279.809 326.488 281.295 311.772 282.05C261.342 284.546 209.178 274.258 159.771 253.053L159.574 253.513L159.771 253.053C138.232 243.811 117.333 232.573 97.3257 219.363C75.2827 204.76 40.8824 177.161 19.6764 146.824C9.07255 131.654 1.8018 115.848 0.980162 100.673C0.160334 85.5309 5.75714 70.9612 21.012 58.2084C30.8465 49.9989 41.9498 47.8369 53.717 48.585C64.5066 49.271 75.8124 52.3994 87.1783 55.5445C88.2328 55.8363 89.2879 56.1282 90.3431 56.4184C102.742 59.8276 115.159 62.9879 126.862 62.6445C138.596 62.3001 149.619 58.4338 159.208 47.8155L159.209 47.8143C163.268 43.2918 166.99 38.1091 170.704 32.8993L171.11 32.3297C174.694 27.3002 178.282 22.2653 182.19 17.7466C190.295 8.37524 199.713 1.29778 213.159 1.19038C225.343 1.1013 234.657 7.71708 242.698 16.8461C246.718 21.41 250.406 26.5866 253.966 31.8409C255.096 33.5088 256.214 35.1861 257.326 36.8538C259.71 40.4299 262.064 43.9616 264.443 47.2609Z" stroke="#BA975F"/>
</svg>
