<svg width="659" height="49" viewBox="0 0 659 49" fill="none" xmlns="http://www.w3.org/2000/svg">
<g opacity="0.2">
<path d="M579.631 12.1409C579.743 12.2654 579.955 12.4895 580.192 12.6887C581.165 13.498 582.088 14.1205 583.36 14.8426C583.697 15.0293 584.108 14.9173 584.295 14.5811C584.482 14.245 584.37 13.8341 584.033 13.6474C582.848 12.9751 582 12.4024 581.115 11.6678L588.735 4.06083C591.866 0.935871 596.955 0.93587 600.085 4.06083C603.216 7.18579 603.216 12.2654 600.085 15.3904L593.625 21.8395L592.44 22.9973C588.174 17.8057 587.862 12.2032 591.654 8.69225C591.691 8.6549 591.716 8.63 591.741 8.59265C591.754 8.5802 591.779 8.56775 591.791 8.5553C592.889 7.55929 594.635 7.54685 595.62 8.51795C596.655 9.5513 596.668 11.2321 595.645 12.2779C595.62 12.2903 595.608 12.3152 595.583 12.3277C594.635 13.3486 593.512 14.0956 592.278 14.5189C591.916 14.6434 591.729 15.0293 591.853 15.3904C591.978 15.7514 592.365 15.9382 592.727 15.8137C594.161 15.3281 595.445 14.4815 596.543 13.3237C596.568 13.3112 596.58 13.2988 596.605 13.2739C598.189 11.6927 598.189 9.11555 596.605 7.53439C595.096 6.02794 592.515 6.01549 590.868 7.52194C590.831 7.55929 590.806 7.58419 590.768 7.62154C590.756 7.63399 590.731 7.64644 590.718 7.65889C586.403 11.6554 586.69 18.1916 591.429 23.9187C591.554 24.0681 591.741 24.2797 591.966 24.4789C592.24 24.7155 592.652 24.7155 592.914 24.454L594.61 22.8106L601.07 16.3615C604.737 12.7012 604.737 6.75004 601.07 3.07728C597.404 -0.583037 591.442 -0.583037 587.763 3.07728L579.643 11.1823C579.406 11.4562 579.394 11.867 579.631 12.1409Z" fill="#BA975F"/>
<path d="M566.922 24.442C567.047 24.3299 567.271 24.1183 567.471 23.8817C568.281 22.9106 568.905 21.9893 569.628 20.7194C569.815 20.3832 569.703 19.9724 569.366 19.7856C569.03 19.5989 568.618 19.711 568.431 20.0471C567.757 21.2299 567.184 22.0765 566.448 22.9604L558.827 15.3534C555.697 12.2285 555.697 7.14886 558.827 4.0239C561.958 0.898935 567.047 0.898935 570.177 4.0239L576.638 10.473L577.798 11.6558C572.597 15.9137 566.984 16.2249 563.467 12.4401C563.43 12.4028 563.405 12.3779 563.367 12.353C563.355 12.3405 563.342 12.3156 563.33 12.3032C562.332 11.2076 562.32 9.46457 563.292 8.48101C564.328 7.44766 566.011 7.4352 567.059 8.45611C567.071 8.48101 567.096 8.49346 567.109 8.51836C568.132 9.46457 568.88 10.5851 569.304 11.8176C569.429 12.1787 569.815 12.3654 570.177 12.2409C570.539 12.1164 570.726 11.7305 570.601 11.3694C570.115 9.93767 569.267 8.65531 568.107 7.5597C568.094 7.5348 568.082 7.52236 568.057 7.49746C566.473 5.91631 563.891 5.91631 562.307 7.49746C560.798 9.00392 560.785 11.5811 562.295 13.2245C562.332 13.2618 562.357 13.2867 562.394 13.3241C562.407 13.3365 562.419 13.3614 562.432 13.3739C566.435 17.6816 572.983 17.3952 578.721 12.6642C578.87 12.5397 579.082 12.353 579.282 12.1289C579.519 11.855 579.519 11.4441 579.257 11.1827L577.611 9.48946L571.15 3.04034C567.483 -0.619971 561.521 -0.619971 557.842 3.04034C554.175 6.70066 554.175 12.6518 557.842 16.3245L565.961 24.4295C566.223 24.6661 566.647 24.6785 566.922 24.442Z" fill="#BA975F"/>
<path d="M592.004 24.8153C591.879 24.9273 591.654 25.139 591.455 25.3756C590.644 26.3467 590.02 27.268 589.297 28.5379C589.11 28.874 589.222 29.2849 589.559 29.4841C589.896 29.6708 590.307 29.5588 590.494 29.2226C591.168 28.0399 591.742 27.1933 592.478 26.3093L600.098 33.9163C603.229 37.0412 603.229 42.1209 600.098 45.2458C596.968 48.3708 591.879 48.3708 588.748 45.2458L582.288 38.7967L581.128 37.6139C586.329 33.356 591.941 33.0448 595.458 36.8296C595.496 36.8669 595.521 36.8918 595.558 36.9167C595.571 36.9292 595.583 36.9541 595.596 36.9665C596.593 38.0621 596.606 39.8051 595.633 40.7887C594.598 41.8221 592.914 41.8345 591.866 40.8136C591.854 40.7887 591.829 40.7763 591.816 40.7514C590.794 39.8051 590.045 38.6846 589.621 37.4521C589.497 37.091 589.11 36.9043 588.748 37.0288C588.387 37.1533 588.199 37.5392 588.324 37.9003C588.811 39.332 589.659 40.6144 590.819 41.71C590.831 41.7349 590.844 41.7474 590.869 41.7723C592.453 43.3534 595.034 43.3534 596.618 41.7723C598.127 40.2658 598.14 37.6886 596.631 36.0452C596.593 36.0079 596.568 35.983 596.531 35.9456C596.519 35.9332 596.506 35.9083 596.494 35.8958C592.49 31.5881 585.942 31.8745 580.205 36.6055C580.055 36.73 579.843 36.9167 579.643 37.1408C579.407 37.4147 579.406 37.8256 579.668 38.087L581.315 39.7803L587.775 46.2294C591.442 49.8897 597.404 49.8897 601.083 46.2294C604.75 42.5691 604.75 36.6179 601.083 32.9452L592.964 24.8402C592.69 24.5787 592.278 24.5663 592.004 24.8153Z" fill="#BA975F"/>
<path d="M579.281 37.1406C579.168 37.0161 578.956 36.792 578.719 36.5928C577.747 35.7835 576.824 35.161 575.551 34.4389C575.215 34.2522 574.803 34.3642 574.604 34.7004C574.416 35.0365 574.529 35.4474 574.865 35.6466C576.05 36.3189 576.898 36.8916 577.784 37.6261L570.163 45.2331C567.033 48.3581 561.944 48.3581 558.814 45.2331C555.683 42.1082 555.683 37.0285 558.814 33.9036L565.274 27.4545L566.459 26.2966C570.725 31.4883 571.036 37.0908 567.245 40.6017C567.207 40.6391 567.182 40.664 567.158 40.7013C567.145 40.7138 567.12 40.7262 567.108 40.7387C566.01 41.7347 564.264 41.7471 563.279 40.776C562.243 39.7427 562.231 38.0619 563.254 37.0161C563.279 37.0036 563.291 36.9787 563.316 36.9663C564.264 35.9454 565.386 35.1984 566.621 34.7751C566.983 34.6506 567.17 34.2646 567.045 33.9036C566.921 33.5425 566.534 33.3558 566.172 33.4803C564.738 33.9658 563.453 34.8124 562.356 35.9703C562.331 35.9827 562.318 35.9952 562.293 36.0201C560.709 37.6013 560.709 40.1784 562.293 41.7596C563.802 43.266 566.384 43.2785 568.031 41.772C568.068 41.7347 568.093 41.7098 568.13 41.6724C568.143 41.66 568.168 41.6475 568.18 41.6351C572.496 37.6386 572.209 31.1023 567.469 25.3753C567.345 25.2259 567.158 25.0143 566.933 24.8151C566.659 24.5785 566.247 24.5785 565.985 24.84L564.289 26.4834L557.828 32.9325C554.161 36.5928 554.161 42.5439 557.828 46.2167C561.495 49.877 567.457 49.877 571.136 46.2167L579.256 38.1117C579.518 37.8254 579.53 37.4145 579.281 37.1406Z" fill="#BA975F"/>
</g>
<g opacity="0.1">
<path d="M634.797 11.8909C634.909 12.0154 635.121 12.2395 635.358 12.4387C636.331 13.248 637.254 13.8705 638.526 14.5926C638.863 14.7793 639.274 14.6673 639.461 14.3311C639.648 13.995 639.536 13.5841 639.199 13.3974C638.014 12.7251 637.166 12.1524 636.281 11.4178L643.901 3.81083C647.032 0.685871 652.121 0.68587 655.251 3.81083C658.382 6.93579 658.382 12.0154 655.251 15.1404L648.791 21.5895L647.606 22.7473C643.34 17.5557 643.028 11.9532 646.82 8.44225C646.857 8.4049 646.882 8.38 646.907 8.34265C646.92 8.3302 646.945 8.31775 646.957 8.3053C648.055 7.30929 649.801 7.29685 650.786 8.26795C651.821 9.3013 651.834 10.9821 650.811 12.0279C650.786 12.0403 650.774 12.0652 650.749 12.0777C649.801 13.0986 648.678 13.8456 647.444 14.2689C647.082 14.3934 646.895 14.7793 647.019 15.1404C647.144 15.5014 647.531 15.6882 647.893 15.5637C649.327 15.0781 650.611 14.2315 651.709 13.0737C651.734 13.0612 651.746 13.0488 651.771 13.0239C653.355 11.4427 653.355 8.86555 651.771 7.28439C650.262 5.77794 647.681 5.76549 646.034 7.27194C645.997 7.30929 645.972 7.33419 645.934 7.37154C645.922 7.38399 645.897 7.39644 645.885 7.40889C641.569 11.4054 641.856 17.9416 646.595 23.6687C646.72 23.8181 646.907 24.0297 647.132 24.2289C647.406 24.4655 647.818 24.4655 648.08 24.204L649.776 22.5606L656.237 16.1115C659.903 12.4512 659.903 6.50004 656.237 2.82728C652.57 -0.833037 646.608 -0.833037 642.929 2.82728L634.809 10.9323C634.572 11.2062 634.56 11.617 634.797 11.8909Z" fill="#BA975F"/>
<path d="M622.088 24.192C622.213 24.0799 622.437 23.8683 622.637 23.6317C623.447 22.6606 624.071 21.7393 624.794 20.4694C624.981 20.1332 624.869 19.7224 624.532 19.5356C624.196 19.3489 623.784 19.461 623.597 19.7971C622.923 20.9799 622.35 21.8265 621.614 22.7104L613.993 15.1034C610.863 11.9785 610.863 6.89886 613.993 3.7739C617.124 0.648935 622.213 0.648935 625.343 3.7739L631.804 10.223L632.964 11.4058C627.763 15.6637 622.15 15.9749 618.633 12.1901C618.596 12.1528 618.571 12.1279 618.533 12.103C618.521 12.0905 618.508 12.0656 618.496 12.0532C617.498 10.9576 617.486 9.21457 618.458 8.23101C619.494 7.19766 621.177 7.1852 622.225 8.20611C622.237 8.23101 622.262 8.24346 622.275 8.26836C623.298 9.21457 624.046 10.3351 624.47 11.5676C624.595 11.9287 624.981 12.1154 625.343 11.9909C625.705 11.8664 625.892 11.4805 625.767 11.1194C625.281 9.68767 624.433 8.40531 623.273 7.3097C623.26 7.2848 623.248 7.27236 623.223 7.24746C621.639 5.66631 619.057 5.66631 617.473 7.24746C615.964 8.75392 615.951 11.3311 617.461 12.9745C617.498 13.0118 617.523 13.0367 617.56 13.0741C617.573 13.0865 617.585 13.1114 617.598 13.1239C621.601 17.4316 628.149 17.1452 633.887 12.4142C634.036 12.2897 634.248 12.103 634.448 11.8789C634.685 11.605 634.685 11.1941 634.423 10.9327L632.777 9.23946L626.316 2.79034C622.649 -0.869971 616.687 -0.869971 613.008 2.79034C609.341 6.45066 609.341 12.4018 613.008 16.0745L621.127 24.1795C621.389 24.4161 621.813 24.4285 622.088 24.192Z" fill="#BA975F"/>
<path d="M647.17 24.5653C647.045 24.6773 646.82 24.889 646.621 25.1256C645.81 26.0967 645.186 27.018 644.463 28.2879C644.276 28.624 644.388 29.0349 644.725 29.2341C645.062 29.4208 645.473 29.3088 645.66 28.9726C646.334 27.7899 646.908 26.9433 647.644 26.0593L655.264 33.6663C658.395 36.7912 658.395 41.8709 655.264 44.9958C652.134 48.1208 647.045 48.1208 643.914 44.9958L637.454 38.5467L636.294 37.3639C641.495 33.106 647.107 32.7948 650.624 36.5796C650.662 36.6169 650.687 36.6418 650.724 36.6667C650.737 36.6792 650.749 36.7041 650.762 36.7165C651.759 37.8121 651.772 39.5551 650.799 40.5387C649.764 41.5721 648.08 41.5845 647.032 40.5636C647.02 40.5387 646.995 40.5263 646.982 40.5014C645.96 39.5551 645.211 38.4346 644.787 37.2021C644.663 36.841 644.276 36.6543 643.914 36.7788C643.553 36.9033 643.365 37.2892 643.49 37.6503C643.977 39.082 644.825 40.3644 645.985 41.46C645.997 41.4849 646.01 41.4974 646.035 41.5223C647.619 43.1034 650.2 43.1034 651.784 41.5223C653.293 40.0158 653.306 37.4386 651.797 35.7952C651.759 35.7579 651.734 35.733 651.697 35.6956C651.685 35.6832 651.672 35.6583 651.66 35.6458C647.656 31.3381 641.108 31.6245 635.371 36.3555C635.221 36.48 635.009 36.6667 634.81 36.8908C634.573 37.1647 634.573 37.5756 634.834 37.837L636.481 39.5303L642.941 45.9794C646.608 49.6397 652.57 49.6397 656.249 45.9794C659.916 42.3191 659.916 36.3679 656.249 32.6952L648.13 24.5902C647.856 24.3287 647.444 24.3163 647.17 24.5653Z" fill="#BA975F"/>
<path d="M634.447 36.8906C634.334 36.7661 634.122 36.542 633.885 36.3428C632.913 35.5335 631.99 34.911 630.717 34.1889C630.381 34.0022 629.969 34.1142 629.77 34.4504C629.582 34.7865 629.695 35.1974 630.031 35.3966C631.216 36.0689 632.064 36.6416 632.95 37.3761L625.329 44.9831C622.199 48.1081 617.11 48.1081 613.98 44.9831C610.849 41.8582 610.849 36.7785 613.98 33.6536L620.44 27.2045L621.625 26.0466C625.891 31.2383 626.202 36.8408 622.411 40.3517C622.373 40.3891 622.348 40.414 622.324 40.4513C622.311 40.4638 622.286 40.4762 622.274 40.4887C621.176 41.4847 619.43 41.4971 618.445 40.526C617.409 39.4927 617.397 37.8119 618.42 36.7661C618.445 36.7536 618.457 36.7287 618.482 36.7163C619.43 35.6954 620.552 34.9484 621.787 34.5251C622.149 34.4006 622.336 34.0146 622.211 33.6536C622.087 33.2925 621.7 33.1058 621.338 33.2303C619.904 33.7158 618.619 34.5624 617.522 35.7203C617.497 35.7327 617.484 35.7452 617.459 35.7701C615.875 37.3513 615.875 39.9284 617.459 41.5096C618.969 43.016 621.55 43.0285 623.197 41.522C623.234 41.4847 623.259 41.4598 623.296 41.4224C623.309 41.41 623.334 41.3975 623.346 41.3851C627.662 37.3886 627.375 30.8523 622.635 25.1253C622.511 24.9759 622.324 24.7643 622.099 24.5651C621.825 24.3285 621.413 24.3285 621.151 24.59L619.455 26.2334L612.994 32.6825C609.327 36.3428 609.327 42.2939 612.994 45.9667C616.661 49.627 622.623 49.627 626.302 45.9667L634.422 37.8617C634.684 37.5754 634.696 37.1645 634.447 36.8906Z" fill="#BA975F"/>
</g>
<path opacity="0.3" d="M524.218 12.1165C524.331 12.241 524.543 12.4651 524.78 12.6643C525.753 13.4736 526.676 14.0961 527.948 14.8182C528.284 15.0049 528.696 14.8929 528.883 14.5567C529.07 14.2206 528.958 13.8097 528.621 13.623C527.436 12.9507 526.588 12.378 525.703 11.6434L533.323 4.03642C536.454 0.911464 541.543 0.911464 544.673 4.03642C547.804 7.16139 547.804 12.241 544.673 15.366L538.212 21.8151L537.028 22.9729C532.762 17.7813 532.45 12.1788 536.242 8.66784C536.279 8.63049 536.304 8.60559 536.329 8.56824C536.342 8.55579 536.367 8.54334 536.379 8.53089C537.477 7.53489 539.223 7.52243 540.208 8.49353C541.243 9.52688 541.256 11.2076 540.233 12.2534C540.208 12.2659 540.196 12.2908 540.171 12.3033C539.223 13.3242 538.1 14.0712 536.865 14.4945C536.504 14.619 536.317 15.0049 536.441 15.366C536.566 15.727 536.953 15.9138 537.314 15.7893C538.749 15.3037 540.033 14.4571 541.131 13.2992C541.156 13.2868 541.168 13.2743 541.193 13.2494C542.777 11.6683 542.777 9.09114 541.193 7.50999C539.684 6.00353 537.102 5.99108 535.456 7.49753C535.419 7.53488 535.394 7.55979 535.356 7.59714C535.344 7.60959 535.319 7.62204 535.306 7.63448C530.991 11.6309 531.278 18.1672 536.017 23.8942C536.142 24.0436 536.329 24.2553 536.554 24.4545C536.828 24.691 537.24 24.691 537.501 24.4296L539.198 22.7862L545.658 16.3371C549.325 12.6767 549.325 6.72563 545.658 3.05287C541.992 -0.607444 536.03 -0.607443 532.35 3.05287L524.231 11.1578C523.994 11.4318 523.982 11.8426 524.218 12.1165Z" fill="#BA975F"/>
<path opacity="0.3" d="M511.51 24.442C511.634 24.3299 511.859 24.1183 512.058 23.8817C512.869 22.9106 513.493 21.9893 514.216 20.7194C514.403 20.3832 514.291 19.9724 513.954 19.7856C513.617 19.5989 513.206 19.711 513.019 20.0471C512.345 21.2299 511.772 22.0765 511.036 22.9604L503.415 15.3534C500.285 12.2285 500.285 7.14886 503.415 4.0239C506.546 0.898935 511.634 0.898935 514.765 4.0239L521.226 10.473L522.386 11.6558C517.185 15.9137 511.572 16.2249 508.055 12.4401C508.017 12.4028 507.992 12.3779 507.955 12.353C507.943 12.3405 507.93 12.3156 507.918 12.3032C506.92 11.2076 506.907 9.46457 507.88 8.48101C508.915 7.44766 510.599 7.4352 511.647 8.45611C511.659 8.48101 511.684 8.49346 511.697 8.51836C512.719 9.46457 513.468 10.5851 513.892 11.8176C514.017 12.1787 514.403 12.3654 514.765 12.2409C515.127 12.1164 515.314 11.7305 515.189 11.3694C514.703 9.93767 513.854 8.65531 512.695 7.5597C512.682 7.5348 512.67 7.52236 512.645 7.49746C511.061 5.91631 508.479 5.91631 506.895 7.49746C505.386 9.00392 505.373 11.5811 506.882 13.2245C506.92 13.2618 506.945 13.2867 506.982 13.3241C506.995 13.3365 507.007 13.3614 507.02 13.3739C511.023 17.6816 517.571 17.3952 523.308 12.6642C523.458 12.5397 523.67 12.353 523.87 12.1289C524.107 11.855 524.107 11.4441 523.845 11.1827L522.198 9.48946L515.738 3.04034C512.071 -0.619971 506.109 -0.619971 502.43 3.04034C498.763 6.70066 498.763 12.6518 502.43 16.3245L510.549 24.4295C510.811 24.6661 511.235 24.6785 511.51 24.442Z" fill="#BA975F"/>
<path opacity="0.3" d="M536.591 24.7028C536.467 24.8148 536.242 25.0265 536.043 25.263C535.232 26.2341 534.608 27.1554 533.885 28.4253C533.698 28.7615 533.81 29.1723 534.147 29.3591C534.484 29.5458 534.895 29.4338 535.082 29.0976C535.756 27.9149 536.329 27.0683 537.065 26.1843L544.686 33.7913C547.817 36.9162 547.817 41.9959 544.686 45.1208C541.555 48.2458 536.467 48.2458 533.336 45.1208L526.875 38.6717L525.716 37.4889C530.917 33.231 536.529 32.9198 540.046 36.7046C540.084 36.7419 540.109 36.7668 540.146 36.7917C540.158 36.8042 540.171 36.8291 540.183 36.8415C541.181 37.9371 541.194 39.6802 540.221 40.6637C539.186 41.6971 537.502 41.7095 536.454 40.6886C536.442 40.6637 536.417 40.6513 536.404 40.6264C535.382 39.6802 534.633 38.5596 534.209 37.3271C534.085 36.966 533.698 36.7793 533.336 36.9038C532.974 37.0283 532.787 37.4142 532.912 37.7753C533.399 39.2071 534.247 40.4894 535.407 41.585C535.419 41.6099 535.432 41.6224 535.456 41.6473C537.04 43.2284 539.622 43.2284 541.206 41.6473C542.715 40.1408 542.728 37.5636 541.219 35.9202C541.181 35.8829 541.156 35.858 541.119 35.8206C541.106 35.8082 541.094 35.7833 541.081 35.7708C537.078 31.4631 530.53 31.7495 524.793 36.4805C524.643 36.605 524.431 36.7917 524.231 37.0158C523.994 37.2897 523.994 37.7006 524.256 37.962L525.903 39.6553L532.363 46.1044C536.03 49.7647 541.992 49.7647 545.671 46.1044C549.338 42.4441 549.338 36.4929 545.671 32.8202L537.552 24.7152C537.277 24.4662 536.866 24.4537 536.591 24.7028Z" fill="#BA975F"/>
<path opacity="0.3" d="M523.869 37.1406C523.756 37.0161 523.544 36.792 523.307 36.5928C522.334 35.7835 521.412 35.161 520.139 34.4389C519.803 34.2522 519.391 34.3642 519.191 34.7004C519.004 35.0365 519.117 35.4474 519.453 35.6466C520.638 36.3189 521.486 36.8916 522.372 37.6261L514.751 45.2331C511.621 48.3581 506.532 48.3581 503.401 45.2331C500.271 42.1082 500.271 37.0285 503.401 33.9036L509.862 27.4545L511.047 26.2966C515.313 31.4883 515.624 37.0908 511.833 40.6017C511.795 40.6391 511.77 40.664 511.745 40.7013C511.733 40.7138 511.708 40.7262 511.696 40.7387C510.598 41.7347 508.852 41.7471 507.867 40.776C506.831 39.7427 506.819 38.0619 507.842 37.0161C507.867 37.0036 507.879 36.9787 507.904 36.9663C508.852 35.9454 509.974 35.1984 511.209 34.7751C511.571 34.6506 511.758 34.2646 511.633 33.9036C511.508 33.5425 511.122 33.3558 510.76 33.4803C509.326 33.9658 508.041 34.8124 506.944 35.9703C506.919 35.9827 506.906 35.9952 506.881 36.0201C505.297 37.6013 505.297 40.1784 506.881 41.7596C508.39 43.266 510.972 43.2785 512.619 41.772C512.656 41.7347 512.681 41.7098 512.718 41.6724C512.731 41.66 512.756 41.6475 512.768 41.6351C517.084 37.6386 516.797 31.1023 512.057 25.3753C511.933 25.2259 511.745 25.0143 511.521 24.8151C511.247 24.5785 510.835 24.5785 510.573 24.84L508.877 26.4834L502.416 32.9325C498.749 36.5928 498.749 42.5439 502.416 46.2167C506.083 49.877 512.045 49.877 515.724 46.2167L523.844 38.1117C524.106 37.8254 524.118 37.4145 523.869 37.1406Z" fill="#BA975F"/>
<g opacity="0.4">
<path d="M468.804 12.1165C468.917 12.241 469.129 12.4651 469.366 12.6643C470.338 13.4736 471.261 14.0961 472.534 14.8182C472.87 15.0049 473.282 14.8929 473.469 14.5567C473.656 14.2206 473.544 13.8097 473.207 13.623C472.022 12.9507 471.174 12.378 470.289 11.6434L477.909 4.03642C481.04 0.911464 486.128 0.911464 489.259 4.03642C492.39 7.16139 492.39 12.241 489.259 15.366L482.798 21.8151L481.613 22.9729C477.348 17.7813 477.036 12.1788 480.828 8.66784C480.865 8.63049 480.89 8.60559 480.915 8.56824C480.927 8.55579 480.952 8.54334 480.965 8.53089C482.062 7.53489 483.809 7.52243 484.794 8.49353C485.829 9.52688 485.842 11.2076 484.819 12.2534C484.794 12.2659 484.781 12.2908 484.757 12.3033C483.809 13.3242 482.686 14.0712 481.451 14.4945C481.09 14.619 480.903 15.0049 481.027 15.366C481.152 15.727 481.539 15.9138 481.9 15.7893C483.335 15.3037 484.619 14.4571 485.717 13.2992C485.742 13.2868 485.754 13.2743 485.779 13.2494C487.363 11.6683 487.363 9.09114 485.779 7.50999C484.27 6.00353 481.688 5.99108 480.042 7.49753C480.005 7.53488 479.98 7.55979 479.942 7.59714C479.93 7.60959 479.905 7.62204 479.892 7.63448C475.577 11.6309 475.864 18.1672 480.603 23.8942C480.728 24.0436 480.915 24.2553 481.14 24.4545C481.414 24.691 481.826 24.691 482.087 24.4296L483.784 22.7862L490.244 16.3371C493.911 12.6767 493.911 6.72563 490.244 3.05287C486.577 -0.607444 480.616 -0.607443 476.936 3.05287L468.817 11.1578C468.58 11.4318 468.567 11.8426 468.804 12.1165Z" fill="#BA975F"/>
<path d="M456.094 24.4674C456.218 24.3553 456.443 24.1437 456.642 23.9071C457.453 22.936 458.077 22.0147 458.8 20.7448C458.987 20.4087 458.875 19.9978 458.538 19.811C458.201 19.6243 457.79 19.7363 457.603 20.0725C456.929 21.2553 456.356 22.1019 455.62 22.9858L447.999 15.3788C444.869 12.2539 444.869 7.17425 447.999 4.04929C451.13 0.924328 456.218 0.924327 459.349 4.04929L465.81 10.4984L466.97 11.6812C461.769 15.9391 456.156 16.2503 452.639 12.4655C452.601 12.4282 452.576 12.4033 452.539 12.3784C452.527 12.3659 452.514 12.341 452.502 12.3286C451.504 11.233 451.491 9.48996 452.464 8.50641C453.499 7.47305 455.183 7.46061 456.231 8.48151C456.243 8.50641 456.268 8.51886 456.281 8.54376C457.303 9.48996 458.052 10.6105 458.476 11.843C458.601 12.2041 458.987 12.3908 459.349 12.2663C459.711 12.1418 459.898 11.7559 459.773 11.3948C459.287 9.96306 458.438 8.68071 457.279 7.58511C457.266 7.56021 457.254 7.54775 457.229 7.52285C455.645 5.9417 453.063 5.9417 451.479 7.52285C449.97 9.02931 449.957 11.6065 451.466 13.2499C451.504 13.2872 451.529 13.3121 451.566 13.3495C451.579 13.3619 451.591 13.3868 451.604 13.3993C455.607 17.707 462.155 17.4206 467.892 12.6896C468.042 12.5651 468.254 12.3784 468.454 12.1543C468.691 11.8804 468.691 11.4695 468.429 11.2081L466.782 9.51486L460.322 3.06574C456.655 -0.594569 450.681 -0.594569 447.014 3.06574C443.347 6.72606 443.347 12.6772 447.014 16.3499L455.133 24.4549C455.408 24.6915 455.819 24.7039 456.094 24.4674Z" fill="#BA975F"/>
<path d="M481.173 24.7906C481.049 24.9027 480.824 25.1143 480.625 25.3509C479.814 26.322 479.19 27.2433 478.467 28.5132C478.28 28.8494 478.392 29.2602 478.729 29.447C479.066 29.6337 479.477 29.5217 479.664 29.1855C480.338 28.0027 480.912 27.1561 481.647 26.2722L489.268 33.8792C492.399 37.0041 492.399 42.0837 489.268 45.2087C486.137 48.3337 481.049 48.3337 477.918 45.2087L471.458 38.7596L470.298 37.5768C475.499 33.3189 481.111 33.0077 484.628 36.7925C484.666 36.8298 484.691 36.8547 484.728 36.8796C484.741 36.8921 484.753 36.917 484.765 36.9294C485.763 38.025 485.776 39.768 484.803 40.7516C483.768 41.785 482.084 41.7974 481.036 40.7765C481.024 40.7516 480.999 40.7391 480.986 40.7142C479.964 39.768 479.215 38.6475 478.791 37.415C478.667 37.0539 478.28 36.8672 477.918 36.9917C477.556 37.1162 477.369 37.5021 477.494 37.8632C477.981 39.2949 478.829 40.5773 479.989 41.6729C480.001 41.6978 480.014 41.7103 480.038 41.7352C481.622 43.3163 484.204 43.3163 485.788 41.7352C487.297 40.2287 487.31 37.6515 485.801 36.0081C485.763 35.9708 485.738 35.9459 485.701 35.9085C485.688 35.8961 485.676 35.8712 485.663 35.8587C481.66 31.551 475.112 31.8374 469.375 36.5684C469.225 36.6929 469.013 36.8796 468.813 37.1037C468.576 37.3776 468.576 37.7885 468.838 38.0499L470.485 39.7431L476.945 46.1923C480.612 49.8526 486.574 49.8526 490.253 46.1923C493.92 42.532 493.92 36.5808 490.253 32.9081L482.134 24.8031C481.872 24.5541 481.448 24.5416 481.173 24.7906Z" fill="#BA975F"/>
<path d="M468.454 37.166C468.341 37.0415 468.129 36.8174 467.892 36.6182C466.92 35.8089 465.997 35.1864 464.724 34.4643C464.388 34.2776 463.976 34.3896 463.789 34.7258C463.602 35.0619 463.714 35.4728 464.051 35.672C465.236 36.3443 466.084 36.917 466.97 37.6515L459.349 45.2585C456.218 48.3835 451.13 48.3835 447.999 45.2585C444.869 42.1336 444.869 37.0539 447.999 33.929L454.46 27.4799L455.645 26.322C459.91 31.5137 460.222 37.1162 456.43 40.6271C456.393 40.6645 456.368 40.6893 456.343 40.7267C456.331 40.7391 456.306 40.7516 456.293 40.764C455.196 41.7601 453.45 41.7725 452.464 40.8014C451.429 39.768 451.417 38.0873 452.439 37.0415C452.464 37.029 452.477 37.0041 452.502 36.9917C453.45 35.9708 454.572 35.2238 455.807 34.8005C456.168 34.676 456.356 34.29 456.231 33.929C456.106 33.5679 455.719 33.3812 455.358 33.5057C453.923 33.9912 452.639 34.8378 451.541 35.9957C451.516 36.0081 451.504 36.0206 451.479 36.0455C449.895 37.6266 449.895 40.2038 451.479 41.785C452.988 43.2914 455.57 43.3039 457.216 41.7974C457.254 41.7601 457.279 41.7352 457.316 41.6978C457.328 41.6854 457.353 41.6729 457.366 41.6605C461.681 37.664 461.394 31.1277 456.655 25.4007C456.53 25.2513 456.343 25.0396 456.119 24.8404C455.844 24.6039 455.433 24.6039 455.171 24.8653L453.474 26.5088L447.014 32.9579C443.347 36.6182 443.347 42.5693 447.014 46.2421C450.681 49.9024 456.642 49.9024 460.322 46.2421L468.441 38.1371C468.691 37.8507 468.703 37.4399 468.454 37.166Z" fill="#BA975F"/>
</g>
<g opacity="0.5">
<path d="M413.388 12.1409C413.501 12.2654 413.713 12.4895 413.95 12.6887C414.922 13.498 415.845 14.1205 417.118 14.8426C417.454 15.0293 417.866 14.9173 418.053 14.5811C418.24 14.245 418.128 13.8341 417.791 13.6474C416.606 12.9751 415.758 12.4024 414.873 11.6678L422.493 4.06083C425.624 0.935871 430.712 0.93587 433.843 4.06083C436.974 7.18579 436.974 12.2654 433.843 15.3904L427.382 21.8395L426.197 22.9973C421.932 17.8057 421.62 12.2032 425.412 8.69225C425.449 8.6549 425.474 8.63 425.499 8.59265C425.511 8.5802 425.536 8.56775 425.549 8.5553C426.646 7.55929 428.393 7.54685 429.378 8.51795C430.413 9.5513 430.426 11.2321 429.403 12.2779C429.378 12.2903 429.365 12.3152 429.34 12.3277C428.393 13.3486 427.27 14.0956 426.035 14.5189C425.674 14.6434 425.487 15.0293 425.611 15.3904C425.736 15.7514 426.123 15.9382 426.484 15.8137C427.919 15.3281 429.203 14.4815 430.301 13.3237C430.326 13.3112 430.338 13.2988 430.363 13.2739C431.947 11.6927 431.947 9.11555 430.363 7.53439C428.854 6.02794 426.272 6.01549 424.626 7.52194C424.589 7.55929 424.564 7.58419 424.526 7.62154C424.514 7.63399 424.489 7.64644 424.476 7.65889C420.161 11.6554 420.448 18.1916 425.187 23.9187C425.312 24.0681 425.499 24.2797 425.724 24.4789C425.998 24.7155 426.41 24.7155 426.671 24.454L428.368 22.8106L434.828 16.3615C438.495 12.7012 438.495 6.75004 434.828 3.07728C431.161 -0.583037 425.2 -0.583037 421.52 3.07728L413.401 11.1823C413.164 11.4562 413.151 11.867 413.388 12.1409Z" fill="#BA975F"/>
<path d="M400.678 24.4417C400.802 24.3297 401.027 24.118 401.226 23.8815C402.037 22.9104 402.661 21.9891 403.384 20.7192C403.571 20.383 403.459 19.9722 403.122 19.7854C402.785 19.5987 402.374 19.7107 402.187 20.0469C401.513 21.2296 400.94 22.0762 400.204 22.9602L392.583 15.3532C389.453 12.2282 389.453 7.14861 392.583 4.02365C395.714 0.898691 400.802 0.898691 403.933 4.02365L410.394 10.4728L411.553 11.6555C406.353 15.9134 400.74 16.2247 397.223 12.4399C397.185 12.4025 397.16 12.3776 397.123 12.3527C397.111 12.3403 397.098 12.3154 397.086 12.3029C396.088 11.2073 396.075 9.46432 397.048 8.48077C398.083 7.44742 399.767 7.43496 400.815 8.45587C400.827 8.48077 400.852 8.49322 400.865 8.51812C401.887 9.46432 402.636 10.5848 403.06 11.8174C403.185 12.1784 403.571 12.3652 403.933 12.2407C404.295 12.1162 404.482 11.7302 404.357 11.3692C403.871 9.93742 403.022 8.65506 401.862 7.55946C401.85 7.53456 401.838 7.52212 401.813 7.49721C400.229 5.91606 397.647 5.91606 396.063 7.49721C394.554 9.00367 394.541 11.5808 396.05 13.2242C396.088 13.2616 396.113 13.2865 396.15 13.3238C396.163 13.3363 396.175 13.3612 396.188 13.3736C400.191 17.6814 406.739 17.395 412.476 12.664C412.626 12.5395 412.838 12.3527 413.038 12.1286C413.275 11.8547 413.275 11.4439 413.013 11.1824L411.366 9.48922L404.906 3.0401C401.239 -0.620215 395.265 -0.620215 391.598 3.0401C387.931 6.70041 387.931 12.6515 391.598 16.3243L399.717 24.4293C399.992 24.6658 400.403 24.6783 400.678 24.4417Z" fill="#BA975F"/>
<path d="M425.761 24.8153C425.637 24.9273 425.412 25.139 425.213 25.3756C424.402 26.3467 423.778 27.268 423.055 28.5379C422.868 28.874 422.98 29.2849 423.317 29.4841C423.654 29.6708 424.065 29.5588 424.252 29.2226C424.926 28.0399 425.499 27.1933 426.235 26.3093L433.856 33.9163C436.986 37.0412 436.986 42.1209 433.856 45.2458C430.725 48.3708 425.637 48.3708 422.506 45.2458L416.045 38.7967L414.885 37.6139C420.086 33.356 425.699 33.0448 429.216 36.8296C429.254 36.8669 429.279 36.8918 429.316 36.9167C429.328 36.9292 429.341 36.9541 429.353 36.9665C430.351 38.0621 430.364 39.8051 429.391 40.7887C428.356 41.8221 426.672 41.8345 425.624 40.8136C425.612 40.7887 425.587 40.7763 425.574 40.7514C424.552 39.8051 423.803 38.6846 423.379 37.4521C423.254 37.091 422.868 36.9043 422.506 37.0288C422.144 37.1533 421.957 37.5392 422.082 37.9003C422.568 39.332 423.417 40.6144 424.576 41.71C424.589 41.7349 424.601 41.7474 424.626 41.7723C426.21 43.3534 428.792 43.3534 430.376 41.7723C431.885 40.2658 431.898 37.6886 430.389 36.0452C430.351 36.0079 430.326 35.983 430.289 35.9456C430.276 35.9332 430.264 35.9083 430.251 35.8958C426.248 31.5881 419.7 31.8745 413.963 36.6055C413.813 36.73 413.601 36.9167 413.401 37.1408C413.164 37.4147 413.164 37.8256 413.426 38.087L415.073 39.7803L421.533 46.2294C425.2 49.8897 431.174 49.8897 434.841 46.2294C438.508 42.5691 438.508 36.6179 434.841 32.9452L426.722 24.8402C426.46 24.5787 426.036 24.5663 425.761 24.8153Z" fill="#BA975F"/>
<path d="M413.038 37.1406C412.925 37.0161 412.713 36.792 412.476 36.5928C411.504 35.7835 410.581 35.161 409.308 34.4389C408.972 34.2522 408.56 34.3642 408.373 34.7004C408.186 35.0365 408.298 35.4474 408.635 35.6466C409.82 36.3189 410.668 36.8916 411.553 37.6261L403.933 45.2331C400.802 48.3581 395.714 48.3581 392.583 45.2331C389.453 42.1082 389.453 37.0285 392.583 33.9036L399.044 27.4545L400.229 26.2966C404.494 31.4883 404.806 37.0908 401.014 40.6017C400.977 40.6391 400.952 40.664 400.927 40.7013C400.915 40.7138 400.89 40.7262 400.877 40.7387C399.78 41.7347 398.034 41.7471 397.048 40.776C396.013 39.7427 396 38.0619 397.023 37.0161C397.048 37.0036 397.061 36.9787 397.086 36.9663C398.034 35.9454 399.156 35.1984 400.391 34.7751C400.752 34.6506 400.94 34.2646 400.815 33.9036C400.69 33.5425 400.303 33.3558 399.942 33.4803C398.507 33.9658 397.223 34.8124 396.125 35.9703C396.1 35.9827 396.088 35.9952 396.063 36.0201C394.479 37.6013 394.479 40.1784 396.063 41.7596C397.572 43.266 400.154 43.2785 401.8 41.772C401.838 41.7347 401.862 41.7098 401.9 41.6724C401.912 41.66 401.937 41.6475 401.95 41.6351C406.265 37.6386 405.978 31.1023 401.239 25.3753C401.114 25.2259 400.927 25.0143 400.703 24.8151C400.428 24.5785 400.017 24.5785 399.755 24.84L398.058 26.4834L391.598 32.9325C387.931 36.5928 387.931 42.5439 391.598 46.2167C395.265 49.877 401.226 49.877 404.906 46.2167L413.025 38.1117C413.275 37.8254 413.287 37.4145 413.038 37.1406Z" fill="#BA975F"/>
</g>
<g opacity="0.6">
<path d="M357.986 12.1165C358.098 12.241 358.31 12.4651 358.547 12.6643C359.52 13.4736 360.443 14.0961 361.715 14.8182C362.052 15.0049 362.463 14.8929 362.65 14.5567C362.837 14.2206 362.725 13.8097 362.388 13.623C361.204 12.9507 360.355 12.378 359.47 11.6434L367.09 4.03642C370.221 0.911464 375.31 0.911464 378.44 4.03642C381.571 7.16139 381.571 12.241 378.44 15.366L371.98 21.8151L370.795 22.9729C366.529 17.7813 366.217 12.1788 370.009 8.66784C370.046 8.63049 370.071 8.60559 370.096 8.56824C370.109 8.55579 370.134 8.54334 370.146 8.53089C371.244 7.53489 372.99 7.52243 373.975 8.49353C375.01 9.52688 375.023 11.2076 374 12.2534C373.975 12.2659 373.963 12.2908 373.938 12.3033C372.99 13.3242 371.867 14.0712 370.633 14.4945C370.271 14.619 370.084 15.0049 370.208 15.366C370.333 15.727 370.72 15.9138 371.082 15.7893C372.516 15.3037 373.801 14.4571 374.898 13.2992C374.923 13.2868 374.936 13.2743 374.96 13.2494C376.544 11.6683 376.544 9.09114 374.96 7.50999C373.451 6.00353 370.87 5.99108 369.223 7.49753C369.186 7.53488 369.161 7.55979 369.123 7.59714C369.111 7.60959 369.086 7.62204 369.074 7.63448C364.758 11.6309 365.045 18.1672 369.784 23.8942C369.909 24.0436 370.096 24.2553 370.321 24.4545C370.595 24.691 371.007 24.691 371.269 24.4296L372.965 22.7862L379.426 16.3371C383.092 12.6767 383.092 6.72563 379.426 3.05287C375.759 -0.607444 369.797 -0.607443 366.118 3.05287L357.998 11.1578C357.749 11.4318 357.736 11.8426 357.986 12.1165Z" fill="#BA975F"/>
<path d="M345.266 24.4417C345.39 24.3297 345.615 24.118 345.814 23.8815C346.625 22.9104 347.249 21.9891 347.972 20.7192C348.159 20.383 348.047 19.9722 347.71 19.7854C347.373 19.5987 346.962 19.7107 346.775 20.0469C346.101 21.2296 345.527 22.0762 344.792 22.9602L337.171 15.3532C334.04 12.2282 334.04 7.14861 337.171 4.02365C340.302 0.898691 345.39 0.898691 348.521 4.02365L354.981 10.4728L356.141 11.6555C350.94 15.9134 345.328 16.2247 341.811 12.4399C341.773 12.4025 341.748 12.3776 341.711 12.3527C341.698 12.3403 341.686 12.3154 341.674 12.3029C340.676 11.2073 340.663 9.46432 341.636 8.48077C342.671 7.44742 344.355 7.43496 345.403 8.45587C345.415 8.48077 345.44 8.49322 345.453 8.51812C346.475 9.46432 347.224 10.5848 347.648 11.8174C347.772 12.1784 348.159 12.3652 348.521 12.2407C348.883 12.1162 349.07 11.7302 348.945 11.3692C348.458 9.93742 347.61 8.65506 346.45 7.55946C346.438 7.53456 346.425 7.52212 346.401 7.49721C344.817 5.91606 342.235 5.91606 340.651 7.49721C339.142 9.00367 339.129 11.5808 340.638 13.2242C340.676 13.2616 340.701 13.2865 340.738 13.3238C340.751 13.3363 340.763 13.3612 340.776 13.3736C344.779 17.6814 351.327 17.395 357.064 12.664C357.214 12.5395 357.426 12.3527 357.626 12.1286C357.863 11.8547 357.863 11.4439 357.601 11.1824L355.954 9.48922L349.494 3.0401C345.827 -0.620215 339.853 -0.620215 336.186 3.0401C332.519 6.70041 332.519 12.6515 336.186 16.3243L344.305 24.4293C344.58 24.6658 344.991 24.6783 345.266 24.4417Z" fill="#BA975F"/>
<path d="M370.345 24.7897C370.221 24.9017 369.996 25.1134 369.797 25.3499C368.986 26.321 368.362 27.2423 367.639 28.5122C367.452 28.8484 367.564 29.2592 367.901 29.446C368.238 29.6327 368.649 29.5207 368.836 29.1845C369.51 28.0018 370.083 27.1552 370.819 26.2712L378.44 33.8782C381.57 37.0032 381.57 42.0828 378.44 45.2077C375.309 48.3327 370.221 48.3327 367.09 45.2077L360.629 38.7586L359.469 37.5759C364.67 33.3179 370.283 33.0067 373.8 36.7915C373.838 36.8289 373.863 36.8538 373.9 36.8787C373.912 36.8911 373.925 36.916 373.937 36.9285C374.935 38.0241 374.948 39.7671 373.975 40.7506C372.94 41.784 371.256 41.7964 370.208 40.7755C370.196 40.7506 370.171 40.7382 370.158 40.7133C369.136 39.7671 368.387 38.6466 367.963 37.414C367.838 37.053 367.452 36.8662 367.09 36.9907C366.728 37.1152 366.541 37.5012 366.666 37.8622C367.152 39.294 368.001 40.5763 369.16 41.6719C369.173 41.6968 369.185 41.7093 369.21 41.7342C370.794 43.3153 373.376 43.3153 374.96 41.7342C376.469 40.2277 376.482 37.6506 374.973 36.0072C374.935 35.9698 374.91 35.9449 374.873 35.9076C374.86 35.8951 374.848 35.8702 374.835 35.8578C370.832 31.55 364.284 31.8364 358.547 36.5674C358.397 36.6919 358.185 36.8787 357.985 37.1028C357.748 37.3767 357.748 37.7875 358.01 38.049L359.657 39.7422L366.117 46.1913C369.784 49.8516 375.758 49.8516 379.425 46.1913C383.092 42.531 383.092 36.5799 379.425 32.9071L371.306 24.8021C371.044 24.5531 370.62 24.5407 370.345 24.7897Z" fill="#BA975F"/>
<path d="M357.626 37.1406C357.513 37.0161 357.301 36.792 357.064 36.5928C356.092 35.7835 355.169 35.161 353.896 34.4389C353.56 34.2522 353.148 34.3642 352.961 34.7004C352.774 35.0365 352.886 35.4474 353.223 35.6466C354.408 36.3189 355.256 36.8916 356.141 37.6261L348.521 45.2331C345.39 48.3581 340.302 48.3581 337.171 45.2331C334.04 42.1082 334.04 37.0285 337.171 33.9036L343.632 27.4545L344.817 26.2966C349.082 31.4883 349.394 37.0908 345.602 40.6017C345.565 40.6391 345.54 40.664 345.515 40.7013C345.503 40.7138 345.478 40.7262 345.465 40.7387C344.368 41.7347 342.621 41.7471 341.636 40.776C340.601 39.7427 340.588 38.0619 341.611 37.0161C341.636 37.0036 341.649 36.9787 341.674 36.9663C342.621 35.9454 343.744 35.1984 344.979 34.7751C345.34 34.6506 345.527 34.2646 345.403 33.9036C345.278 33.5425 344.891 33.3558 344.53 33.4803C343.095 33.9658 341.811 34.8124 340.713 35.9703C340.688 35.9827 340.676 35.9952 340.651 36.0201C339.067 37.6013 339.067 40.1784 340.651 41.7596C342.16 43.266 344.742 43.2785 346.388 41.772C346.425 41.7347 346.45 41.7098 346.488 41.6724C346.5 41.66 346.525 41.6475 346.538 41.6351C350.853 37.6386 350.566 31.1023 345.827 25.3753C345.702 25.2259 345.515 25.0143 345.29 24.8151C345.016 24.5785 344.605 24.5785 344.343 24.84L342.646 26.4834L336.186 32.9325C332.519 36.5928 332.519 42.5439 336.186 46.2167C339.853 49.877 345.814 49.877 349.494 46.2167L357.613 38.1117C357.863 37.8254 357.875 37.4145 357.626 37.1406Z" fill="#BA975F"/>
</g>
<path d="M135.176 12.1384C135.291 12.2664 135.509 12.4967 135.752 12.7015C136.75 13.5333 137.698 14.1732 139.003 14.9155C139.349 15.1074 139.771 14.9923 139.963 14.6467C140.155 14.3012 140.04 13.8789 139.694 13.6869C138.478 12.9958 137.608 12.4072 136.699 11.6521L144.519 3.83285C147.732 0.620679 152.954 0.620679 156.167 3.83285C159.379 7.04501 159.379 12.2664 156.167 15.4786L149.537 22.1076L148.321 23.2978C143.944 17.9613 143.624 12.2024 147.514 8.59351C147.553 8.55512 147.578 8.52952 147.604 8.49113C147.617 8.47833 147.642 8.46554 147.655 8.45274C148.782 7.42894 150.573 7.41614 151.585 8.41435C152.647 9.47654 152.66 11.2042 151.61 12.2792C151.585 12.292 151.572 12.3176 151.546 12.3304C150.573 13.3798 149.422 14.1476 148.154 14.5827C147.783 14.7107 147.591 15.1074 147.719 15.4786C147.847 15.8497 148.244 16.0416 148.615 15.9137C150.087 15.4146 151.405 14.5443 152.532 13.3542C152.557 13.3414 152.57 13.3286 152.596 13.303C154.221 11.6777 154.221 9.02862 152.596 7.40334C151.047 5.85485 148.398 5.84205 146.708 7.39054C146.67 7.42894 146.644 7.45453 146.606 7.49293C146.593 7.50573 146.567 7.51852 146.555 7.53132C142.126 11.6393 142.42 18.358 147.284 24.2448C147.412 24.3984 147.604 24.616 147.834 24.8207C148.116 25.0639 148.538 25.0639 148.807 24.7951L150.548 23.1058L157.178 16.4768C160.941 12.7143 160.941 6.5971 157.178 2.82185C153.415 -0.940614 147.297 -0.940613 143.521 2.82185L135.189 11.153C134.946 11.4346 134.933 11.8569 135.176 12.1384Z" fill="#BA975F"/>
<path d="M122.653 24.8254C122.776 24.7103 122.997 24.4928 123.193 24.2497C123.992 23.2518 124.606 22.3051 125.319 21.0002C125.503 20.6548 125.393 20.2326 125.061 20.0279C124.729 19.836 124.324 19.9512 124.139 20.2966C123.476 21.5119 122.911 22.3819 122.186 23.2902L114.68 15.4735C111.596 12.2624 111.596 7.04272 114.68 3.8316C117.763 0.620477 122.776 0.620477 125.859 3.8316L132.223 10.4585L133.366 11.6739C128.243 16.0492 122.714 16.369 119.25 12.4799C119.213 12.4415 119.188 12.4159 119.151 12.3903C119.139 12.3775 119.127 12.3519 119.115 12.3391C118.132 11.2133 118.119 9.42228 119.078 8.4116C120.097 7.34976 121.756 7.33696 122.788 8.38601C122.8 8.4116 122.825 8.4244 122.837 8.44998C123.845 9.42227 124.582 10.5737 124.999 11.8402C125.122 12.2112 125.503 12.4031 125.859 12.2752C126.216 12.1472 126.4 11.7507 126.277 11.3797C125.798 9.90842 124.963 8.59071 123.82 7.4649C123.808 7.43932 123.795 7.42652 123.771 7.40093C122.211 5.77618 119.667 5.77618 118.107 7.40093C116.621 8.94892 116.608 11.5971 118.095 13.2859C118.132 13.3242 118.156 13.3498 118.193 13.3882C118.205 13.401 118.218 13.4266 118.23 13.4394C122.174 17.8659 128.624 17.5716 134.275 12.7102C134.422 12.5822 134.631 12.3903 134.828 12.16C135.061 11.8786 135.061 11.4564 134.803 11.1877L133.182 9.44786L126.818 2.82093C123.206 -0.940306 117.333 -0.940306 113.709 2.82093C110.097 6.58216 110.097 12.6974 113.709 16.4714L121.707 24.7998C121.965 25.0557 122.383 25.0685 122.653 24.8254Z" fill="#BA975F"/>
<path d="M80.1691 12.1384C80.2797 12.2664 80.4885 12.4967 80.722 12.7015C81.6804 13.5333 82.5896 14.1732 83.8429 14.9155C84.1747 15.1074 84.5802 14.9922 84.7645 14.6467C84.9488 14.3012 84.8382 13.8789 84.5064 13.6869C83.3392 12.9958 82.5036 12.4072 81.6312 11.6521L89.1387 3.83285C92.2228 0.620681 97.2359 0.620681 100.32 3.83285C103.404 7.04502 103.404 12.2664 100.32 15.4786L93.9553 22.1077L92.788 23.2978C88.5858 17.9613 88.2786 12.2024 92.0139 8.5935C92.0507 8.55511 92.0753 8.52952 92.0999 8.49113C92.1122 8.47833 92.1368 8.46553 92.149 8.45273C93.2303 7.42893 94.9505 7.41614 95.9212 8.41434C96.941 9.47653 96.9533 11.2042 95.9458 12.2792C95.9212 12.292 95.9089 12.3176 95.8843 12.3304C94.9505 13.3798 93.8447 14.1476 92.6282 14.5827C92.2719 14.7107 92.0876 15.1074 92.2105 15.4786C92.3334 15.8497 92.7143 16.0416 93.0706 15.9137C94.4836 15.4146 95.7492 14.5443 96.8304 13.3542C96.855 13.3414 96.8673 13.3286 96.8919 13.303C98.4524 11.6777 98.4523 9.02862 96.8919 7.40334C95.4051 5.85484 92.8617 5.84205 91.2398 7.39055C91.2029 7.42894 91.1784 7.45453 91.1415 7.49292C91.1292 7.50572 91.1046 7.51852 91.0923 7.53132C86.841 11.6393 87.1236 18.358 91.7927 24.2448C91.9156 24.3984 92.0999 24.616 92.3211 24.8207C92.5914 25.0639 92.9969 25.0639 93.2549 24.7951L94.9259 23.1059L101.291 16.4768C104.903 12.7143 104.903 6.58431 101.291 2.82185C97.6783 -0.940614 91.805 -0.940613 88.1803 2.82185L80.1814 11.153C79.9479 11.4345 79.9356 11.8569 80.1691 12.1384Z" fill="#BA975F"/>
<path d="M67.1512 24.8239C67.2792 24.7087 67.5095 24.4911 67.7143 24.2479C68.5461 23.2496 69.186 22.3025 69.9283 20.997C70.1202 20.6514 70.0051 20.229 69.6595 20.037C69.314 19.845 68.8917 19.9602 68.6869 20.3058C67.9958 21.5217 67.4072 22.3921 66.6521 23.3008L58.8328 15.4805C55.6207 12.268 55.6207 7.04591 58.8328 3.83333C62.045 0.62075 67.2664 0.62075 70.4786 3.83333L77.1077 10.4633L78.2978 11.6792C72.9613 16.0565 67.2024 16.3765 63.5935 12.4855C63.5551 12.4471 63.5295 12.4215 63.4911 12.3959C63.4783 12.3831 63.4655 12.3575 63.4527 12.3447C62.4289 11.2184 62.4161 9.42655 63.4143 8.41542C64.4765 7.35309 66.2042 7.3403 67.2792 8.38982C67.292 8.41542 67.3176 8.42821 67.3304 8.45381C68.3798 9.42654 69.1476 10.5785 69.5827 11.8456C69.7107 12.2168 70.1074 12.4087 70.4786 12.2808C70.8497 12.1528 71.0416 11.756 70.9137 11.3848C70.4146 9.91291 69.5443 8.59461 68.3542 7.46828C68.3414 7.44269 68.3286 7.42988 68.303 7.40428C66.6777 5.7788 64.0286 5.7788 62.4033 7.40429C60.8548 8.95298 60.8421 11.6024 62.3905 13.2919C62.4289 13.3303 62.4545 13.3559 62.4929 13.3943C62.5057 13.4071 62.5185 13.4327 62.5313 13.4455C66.6393 17.874 73.358 17.5796 79.2448 12.7159C79.3984 12.5879 79.616 12.3959 79.8207 12.1656C80.0639 11.884 80.0639 11.4616 79.7951 11.1928L78.1059 9.45214L71.4768 2.82221C67.7143 -0.940734 61.5971 -0.940733 57.8218 2.82221C54.0594 6.58515 54.0594 12.7031 57.8218 16.4789L66.153 24.8111C66.4473 25.0543 66.8697 25.0671 67.1512 24.8239Z" fill="#BA975F"/>
<path d="M24.1731 12.1384C24.2882 12.2664 24.5056 12.4967 24.7485 12.7015C25.746 13.5333 26.6922 14.1732 27.9966 14.9155C28.3418 15.1074 28.7638 14.9923 28.9556 14.6467C29.1474 14.3012 29.0324 13.8789 28.6871 13.6869C27.4723 12.9958 26.6027 12.4072 25.6948 11.6521L33.5335 3.83285C36.7432 0.620679 41.9605 0.620679 45.1701 3.83285C48.3798 7.04501 48.3798 12.2664 45.1702 15.4786L38.5462 22.1076L37.3314 23.2978C32.9581 17.9613 32.6384 12.2024 36.5258 8.59351C36.5642 8.55512 36.5898 8.52952 36.6153 8.49113C36.6281 8.47833 36.6537 8.46554 36.6665 8.45274C37.7918 7.42894 39.582 7.41614 40.5922 8.41435C41.6536 9.47654 41.6664 11.2042 40.6178 12.2792C40.5922 12.292 40.5794 12.3176 40.5539 12.3304C39.582 13.3798 38.4311 14.1476 37.1652 14.5827C36.7944 14.7107 36.6025 15.1074 36.7304 15.4786C36.8583 15.8497 37.2547 16.0416 37.6255 15.9137C39.0961 15.4146 40.4132 14.5443 41.5385 13.3542C41.5641 13.3414 41.5769 13.3286 41.6024 13.303C43.2265 11.6777 43.2265 9.02862 41.6024 7.40334C40.0552 5.85485 37.4082 5.84205 35.7202 7.39054C35.6818 7.42894 35.6563 7.45453 35.6179 7.49293C35.6051 7.50573 35.5795 7.51852 35.5668 7.53132C31.1423 11.6393 31.4364 18.358 36.2956 24.2448C36.4235 24.3984 36.6153 24.616 36.8455 24.8207C37.1268 25.0639 37.5488 25.0639 37.8174 24.7951L39.5564 23.1058L46.1804 16.4768C49.9399 12.7143 49.9399 6.5971 46.1804 2.82185C42.4208 -0.940614 36.3084 -0.940613 32.5361 2.82185L24.2115 11.153C23.9429 11.4346 23.9301 11.8569 24.1731 12.1384Z" fill="#BA975F"/>
<path d="M11.6529 24.8269C11.7757 24.7118 11.9969 24.4944 12.1934 24.2515C12.992 23.254 13.6063 22.3078 14.3188 21.0034C14.5031 20.6582 14.3926 20.2362 14.0608 20.0444C13.7291 19.8526 13.3237 19.9676 13.1271 20.3129C12.4637 21.5277 11.8986 22.3973 11.1737 23.3052L3.67953 15.4665C0.59585 12.2568 0.59585 7.03951 3.67953 3.82985C6.76321 0.620195 11.7757 0.620195 14.8594 3.82985L21.2233 10.4538L22.3659 11.6686C17.2428 16.0419 11.7143 16.3616 8.24977 12.4742C8.21291 12.4358 8.18834 12.4103 8.15148 12.3847C8.1392 12.3719 8.12691 12.3463 8.11463 12.3335C7.13178 11.2082 7.11949 9.41798 8.07777 8.40777C9.09747 7.34641 10.756 7.33362 11.788 8.38219C11.8003 8.40777 11.8249 8.42056 11.8372 8.44613C12.8446 9.41798 13.5817 10.5689 13.9994 11.8348C14.1223 12.2057 14.5031 12.3975 14.8594 12.2696C15.2157 12.1417 15.4 11.7453 15.2771 11.3745C14.798 9.90391 13.9626 8.58679 12.82 7.46149C12.8077 7.43591 12.7954 7.42313 12.7709 7.39756C11.2106 5.77355 8.66748 5.77355 7.10721 7.39756C5.62065 8.94484 5.60837 11.5919 7.09492 13.2798C7.13178 13.3182 7.15635 13.3437 7.19321 13.3821C7.20549 13.3949 7.21778 13.4205 7.23006 13.4333C11.1737 17.8577 17.6237 17.5636 23.275 12.7044C23.4225 12.5765 23.6313 12.3847 23.8279 12.1545C24.0613 11.8732 24.0613 11.4512 23.8033 11.1827L22.1816 9.44355L15.8177 2.81964C12.2057 -0.939879 6.32093 -0.939879 2.70897 2.81964C-0.902991 6.57916 -0.902991 12.6916 2.70897 16.4639L10.7069 24.7885C10.9772 25.0571 11.3826 25.0699 11.6529 24.8269Z" fill="#BA975F"/>
<g opacity="0.7">
<path d="M302.572 12.1165C302.684 12.241 302.896 12.4651 303.133 12.6643C304.106 13.4736 305.029 14.0961 306.301 14.8182C306.638 15.0049 307.049 14.8929 307.236 14.5567C307.423 14.2206 307.311 13.8097 306.974 13.623C305.789 12.9507 304.941 12.378 304.056 11.6434L311.676 4.03642C314.807 0.911464 319.896 0.911464 323.026 4.03642C326.157 7.16139 326.157 12.241 323.026 15.366L316.566 21.8151L315.381 22.9729C311.115 17.7813 310.803 12.1788 314.595 8.66784C314.632 8.63049 314.657 8.60559 314.682 8.56824C314.695 8.55579 314.72 8.54334 314.732 8.53089C315.83 7.53489 317.576 7.52243 318.561 8.49353C319.596 9.52688 319.609 11.2076 318.586 12.2534C318.561 12.2659 318.549 12.2908 318.524 12.3033C317.576 13.3242 316.453 14.0712 315.219 14.4945C314.857 14.619 314.67 15.0049 314.794 15.366C314.919 15.727 315.306 15.9138 315.668 15.7893C317.102 15.3037 318.386 14.4571 319.484 13.2992C319.509 13.2868 319.521 13.2743 319.546 13.2494C321.13 11.6683 321.13 9.09114 319.546 7.50999C318.037 6.00353 315.455 5.99108 313.809 7.49753C313.772 7.53488 313.747 7.55979 313.709 7.59714C313.697 7.60959 313.672 7.62204 313.659 7.63448C309.344 11.6309 309.631 18.1672 314.37 23.8942C314.495 24.0436 314.682 24.2553 314.907 24.4545C315.181 24.691 315.593 24.691 315.855 24.4296L317.551 22.7862L324.011 16.3371C327.678 12.6767 327.678 6.72563 324.011 3.05287C320.345 -0.607444 314.383 -0.607443 310.704 3.05287L302.584 11.1578C302.335 11.4318 302.322 11.8426 302.572 12.1165Z" fill="#BA975F"/>
<path d="M314.944 24.7909C314.819 24.9029 314.595 25.1146 314.395 25.3511C313.584 26.3222 312.961 27.2435 312.237 28.5134C312.05 28.8496 312.162 29.2604 312.499 29.4472C312.836 29.6339 313.248 29.5219 313.435 29.1857C314.108 28.003 314.682 27.1564 315.418 26.2724L323.026 33.8919C326.156 37.0168 326.156 42.0964 323.026 45.2214C319.895 48.3464 314.807 48.3464 311.676 45.2214L305.215 38.7723L304.055 37.5895C309.256 33.3316 314.869 33.0204 318.386 36.8052C318.424 36.8425 318.448 36.8674 318.486 36.8923C318.498 36.9048 318.511 36.9297 318.523 36.9421C319.521 38.0377 319.534 39.7807 318.561 40.7643C317.526 41.7976 315.842 41.8101 314.794 40.7892C314.782 40.7643 314.757 40.7518 314.744 40.7269C313.721 39.7807 312.973 38.6602 312.549 37.4277C312.424 37.0666 312.038 36.8799 311.676 37.0044C311.314 37.1289 311.127 37.5148 311.252 37.8759C311.738 39.3076 312.586 40.59 313.746 41.6856C313.759 41.7105 313.771 41.7229 313.796 41.7478C315.38 43.329 317.962 43.329 319.546 41.7478C321.055 40.2414 321.068 37.6642 319.558 36.0208C319.521 35.9835 319.496 35.9586 319.459 35.9212C319.446 35.9088 319.434 35.8839 319.421 35.8714C315.418 31.5637 308.87 31.8501 303.132 36.5811C302.983 36.7056 302.771 36.8923 302.571 37.1164C302.334 37.3903 302.334 37.8012 302.596 38.0626L304.243 39.7558L310.703 46.205C314.37 49.8653 320.332 49.8653 324.011 46.205C327.678 42.5446 327.678 36.5935 324.011 32.9208L315.892 24.8158C315.63 24.5543 315.206 24.5419 314.944 24.7909Z" fill="#BA975F"/>
<path d="M288.887 24.4922C289.012 24.3802 289.237 24.1685 289.436 23.932C290.247 22.9608 290.87 22.0395 291.594 20.7696C291.781 20.4335 291.669 20.0226 291.332 19.8234C290.995 19.6367 290.584 19.7487 290.384 20.0849C289.711 21.2676 289.137 22.1142 288.401 22.9982L280.78 15.3912C277.65 12.2663 277.65 7.18664 280.78 4.06168C283.911 0.936722 289 0.936721 292.13 4.06168L298.591 10.5108L299.751 11.6936C294.55 15.9515 288.937 16.2627 285.42 12.4779C285.383 12.4406 285.358 12.4157 285.32 12.3908C285.308 12.3783 285.295 12.3534 285.283 12.341C284.285 11.2454 284.273 9.50236 285.245 8.5188C286.281 7.48545 287.964 7.47299 289.012 8.4939C289.025 8.5188 289.05 8.53125 289.062 8.55615C290.085 9.50235 290.833 10.6229 291.257 11.8554C291.382 12.2165 291.768 12.4032 292.13 12.2787C292.492 12.1542 292.679 11.7683 292.554 11.4072C292.068 9.97546 291.22 8.69311 290.06 7.5975C290.047 7.5726 290.035 7.56015 290.01 7.53525C288.426 5.95409 285.844 5.95409 284.26 7.53525C282.751 9.0417 282.739 11.6189 284.248 13.2623C284.285 13.2996 284.31 13.3245 284.347 13.3619C284.36 13.3743 284.372 13.3992 284.385 13.4117C288.388 17.7194 294.936 17.433 300.674 12.702C300.823 12.5775 301.035 12.3908 301.235 12.1667C301.472 11.8928 301.472 11.4819 301.21 11.2205L299.564 9.52725L293.103 3.07813C289.436 -0.582186 283.474 -0.582186 279.795 3.07813C276.128 6.73844 276.128 12.6896 279.795 16.3623L287.915 24.4673C288.201 24.7163 288.625 24.7288 288.887 24.4922Z" fill="#BA975F"/>
<path d="M301.262 37.1911C301.15 37.0666 300.938 36.8425 300.701 36.6433C299.728 35.8341 298.805 35.2116 297.533 34.4895C297.196 34.3027 296.785 34.4148 296.598 34.7509C296.411 35.0871 296.523 35.4979 296.86 35.6847C298.044 36.357 298.893 36.9297 299.778 37.6642L292.158 45.2712C289.027 48.3962 283.938 48.3962 280.808 45.2712C277.677 42.1463 277.677 37.0666 280.808 33.9417L287.268 27.4925L288.453 26.3347C292.719 31.5264 293.031 37.1289 289.239 40.6398C289.202 40.6771 289.177 40.702 289.152 40.7394C289.139 40.7518 289.114 40.7643 289.102 40.7767C288.004 41.7728 286.258 41.7852 285.273 40.8141C284.238 39.7807 284.225 38.1 285.248 37.0542C285.273 37.0417 285.285 37.0168 285.31 37.0044C286.258 35.9835 287.381 35.2365 288.615 34.8132C288.977 34.6887 289.164 34.3027 289.039 33.9417C288.915 33.5806 288.528 33.3939 288.166 33.5184C286.732 34.0039 285.447 34.8505 284.35 36.0084C284.325 36.0208 284.312 36.0333 284.287 36.0582C282.704 37.6393 282.704 40.2165 284.287 41.7977C285.797 43.3041 288.378 43.3166 290.025 41.8101C290.062 41.7727 290.087 41.7479 290.125 41.7105C290.137 41.6981 290.162 41.6856 290.174 41.6731C294.49 37.6767 294.203 31.1404 289.463 25.4134C289.339 25.264 289.152 25.0523 288.927 24.8531C288.653 24.6166 288.241 24.6166 287.979 24.878L286.283 26.5214L279.822 32.9706C276.156 36.6309 276.156 42.582 279.822 46.2548C283.489 49.9151 289.451 49.9151 293.13 46.2548L301.25 38.1498C301.499 37.8759 301.512 37.465 301.262 37.1911Z" fill="#BA975F"/>
</g>
<g opacity="0.8">
<path d="M246.197 12.1663C246.309 12.2908 246.521 12.5149 246.758 12.7141C247.731 13.5234 248.654 14.1459 249.926 14.868C250.263 15.0547 250.675 14.9427 250.862 14.6065C251.049 14.2704 250.936 13.8595 250.6 13.6728C249.415 13.0005 248.567 12.4277 247.681 11.6932L255.302 4.08623C258.432 0.961269 263.521 0.961269 266.652 4.08623C269.782 7.21119 269.782 12.2908 266.652 15.4158L260.191 21.8649L259.006 23.0227C254.741 17.8311 254.429 12.2285 258.22 8.71764C258.258 8.68029 258.283 8.65539 258.308 8.61804C258.32 8.60559 258.345 8.59314 258.358 8.58068C259.455 7.58468 261.201 7.57223 262.187 8.54334C263.222 9.57669 263.234 11.2575 262.211 12.3033C262.187 12.3157 262.174 12.3406 262.149 12.3531C261.201 13.374 260.079 14.121 258.844 14.5443C258.482 14.6688 258.295 15.0547 258.42 15.4158C258.545 15.7768 258.931 15.9636 259.293 15.8391C260.727 15.3535 262.012 14.5069 263.109 13.3491C263.134 13.3366 263.147 13.3242 263.172 13.2993C264.756 11.7181 264.756 9.14094 263.172 7.55978C261.663 6.05333 259.081 6.04088 257.435 7.54734C257.397 7.58469 257.372 7.60958 257.335 7.64693C257.322 7.65938 257.297 7.67184 257.285 7.68429C252.969 11.6808 253.256 18.217 257.996 23.944C258.121 24.0934 258.308 24.3051 258.532 24.5043C258.807 24.7408 259.218 24.7408 259.48 24.4794L261.176 22.836L267.637 16.3869C271.304 12.7266 271.304 6.76299 267.637 3.10267C263.97 -0.557639 258.008 -0.557639 254.329 3.10267L246.209 11.2076C245.973 11.4815 245.96 11.8924 246.197 12.1663Z" fill="#BA975F"/>
<path d="M233.487 24.4671C233.612 24.3551 233.836 24.1434 234.036 23.9069C234.846 22.9358 235.47 22.0145 236.193 20.7446C236.381 20.4084 236.268 19.9976 235.932 19.8108C235.595 19.6241 235.183 19.7361 234.984 20.0723C234.31 21.255 233.736 22.1016 233.001 22.9856L225.38 15.3786C222.249 12.2536 222.249 7.17401 225.38 4.04905C228.511 0.924083 233.599 0.924083 236.73 4.04904L243.19 10.4982L244.35 11.6809C239.149 15.9388 233.537 16.2501 230.02 12.4653C229.982 12.4279 229.957 12.403 229.92 12.3781C229.907 12.3657 229.895 12.3408 229.883 12.3283C228.885 11.2327 228.872 9.48972 229.845 8.50616C230.88 7.47281 232.564 7.46036 233.612 8.48127C233.624 8.50617 233.649 8.51861 233.662 8.54351C234.684 9.48971 235.433 10.6102 235.857 11.8428C235.981 12.2038 236.368 12.3906 236.73 12.2661C237.091 12.1416 237.279 11.7556 237.154 11.3946C236.667 9.96282 235.819 8.68047 234.659 7.58486C234.647 7.55996 234.634 7.54751 234.609 7.52261C233.026 5.94145 230.444 5.94145 228.86 7.52261C227.351 9.02906 227.338 11.6062 228.847 13.2496C228.885 13.287 228.91 13.3119 228.947 13.3492C228.96 13.3617 228.972 13.3866 228.984 13.399C232.988 17.7067 239.536 17.4204 245.273 12.6894C245.423 12.5649 245.635 12.3781 245.835 12.154C246.072 11.8801 246.072 11.4693 245.81 11.2078L244.163 9.51461L237.703 3.0655C234.036 -0.594813 228.062 -0.594813 224.395 3.0655C220.728 6.72581 220.728 12.6769 224.395 16.3497L232.514 24.4547C232.789 24.6912 233.213 24.7037 233.487 24.4671Z" fill="#BA975F"/>
<path d="M258.57 24.8404C258.445 24.9525 258.221 25.1641 258.021 25.4007C257.21 26.3718 256.587 27.2931 255.863 28.563C255.676 28.8992 255.789 29.31 256.125 29.4968C256.462 29.6835 256.874 29.5715 257.061 29.2353C257.734 28.0526 258.308 27.206 259.044 26.322L266.664 33.929C269.795 37.0539 269.795 42.1336 266.664 45.2585C263.534 48.3835 258.445 48.3835 255.315 45.2585L248.854 38.8094L247.694 37.6266C252.895 33.3687 258.508 33.0575 262.025 36.8423C262.062 36.8796 262.087 36.9045 262.125 36.9294C262.137 36.9419 262.149 36.9668 262.162 36.9792C263.16 38.0748 263.172 39.8178 262.199 40.8014C261.164 41.8348 259.48 41.8472 258.433 40.8263C258.42 40.8014 258.395 40.7889 258.383 40.764C257.36 39.8178 256.612 38.6973 256.188 37.4648C256.063 37.1037 255.676 36.917 255.315 37.0415C254.953 37.166 254.766 37.5519 254.891 37.913C255.377 39.3447 256.225 40.6271 257.385 41.7227C257.398 41.7476 257.41 41.7601 257.435 41.785C259.019 43.3661 261.601 43.3661 263.185 41.785C264.694 40.2785 264.706 37.7013 263.197 36.0579C263.16 36.0206 263.135 35.9957 263.097 35.9583C263.085 35.9459 263.072 35.921 263.06 35.9085C259.056 31.6008 252.508 31.8872 246.771 36.6182C246.621 36.7427 246.409 36.9294 246.21 37.1535C245.973 37.4274 245.973 37.8383 246.235 38.0997L247.881 39.7929L254.342 46.2421C258.009 49.9024 263.97 49.9024 267.65 46.2421C271.317 42.5818 271.317 36.6306 267.65 32.9579L259.53 24.8529C259.256 24.6039 258.844 24.5914 258.57 24.8404Z" fill="#BA975F"/>
<path d="M245.848 37.166C245.736 37.0415 245.524 36.8174 245.287 36.6182C244.314 35.8089 243.391 35.1864 242.119 34.4643C241.782 34.2776 241.371 34.3896 241.184 34.7258C240.997 35.0619 241.109 35.4728 241.446 35.672C242.63 36.3443 243.479 36.917 244.364 37.6515L236.743 45.2585C233.613 48.3835 228.524 48.3835 225.394 45.2585C222.263 42.1336 222.263 37.0539 225.394 33.929L231.854 27.4799L233.039 26.322C237.305 31.5137 237.617 37.1162 233.825 40.6271C233.788 40.6645 233.763 40.6893 233.738 40.7267C233.725 40.7391 233.7 40.7516 233.688 40.764C232.59 41.7601 230.844 41.7725 229.859 40.8014C228.824 39.768 228.811 38.0873 229.834 37.0415C229.859 37.029 229.871 37.0041 229.896 36.9917C230.844 35.9708 231.967 35.2238 233.201 34.8005C233.563 34.676 233.75 34.29 233.625 33.929C233.501 33.5679 233.114 33.3812 232.752 33.5057C231.318 33.9912 230.033 34.8378 228.936 35.9957C228.911 36.0081 228.898 36.0206 228.873 36.0455C227.289 37.6266 227.289 40.2038 228.873 41.785C230.383 43.2914 232.964 43.3039 234.611 41.7974C234.648 41.7601 234.673 41.7352 234.71 41.6978C234.723 41.6854 234.748 41.6729 234.76 41.6605C239.076 37.664 238.789 31.1277 234.049 25.4007C233.925 25.2513 233.738 25.0396 233.513 24.8404C233.239 24.6039 232.827 24.6039 232.565 24.8653L230.869 26.5088L224.408 32.9579C220.741 36.6182 220.741 42.5693 224.408 46.2421C228.075 49.9024 234.037 49.9024 237.716 46.2421L245.836 38.1371C246.085 37.8507 246.098 37.4399 245.848 37.166Z" fill="#BA975F"/>
</g>
<path d="M147.849 25.1767C147.721 25.2872 147.49 25.4959 147.286 25.7292C146.454 26.6868 145.814 27.5953 145.072 28.8475C144.88 29.179 144.995 29.5841 145.34 29.7806C145.686 29.9647 146.108 29.8542 146.313 29.5227C147.004 28.3564 147.593 27.5216 148.348 26.65L156.167 34.1511C159.379 37.2326 159.379 42.2416 156.167 45.3231C152.955 48.4046 147.734 48.4046 144.521 45.3231L137.892 38.9637L136.702 37.7974C142.039 33.5987 147.798 33.2917 151.406 37.0239C151.445 37.0607 151.47 37.0853 151.509 37.1098C151.522 37.1221 151.534 37.1467 151.547 37.159C152.571 38.2393 152.584 39.9581 151.586 40.928C150.523 41.9469 148.796 41.9592 147.721 40.9525C147.708 40.928 147.682 40.9157 147.67 40.8911C146.62 39.9581 145.852 38.8532 145.417 37.6378C145.289 37.2817 144.893 37.0976 144.521 37.2203C144.15 37.3431 143.958 37.7237 144.086 38.0797C144.585 39.4916 145.456 40.7561 146.646 41.8364C146.659 41.861 146.671 41.8733 146.697 41.8978C148.322 43.457 150.971 43.457 152.597 41.8978C154.145 40.4123 154.158 37.871 152.609 36.2505C152.571 36.2136 152.545 36.1891 152.507 36.1523C152.494 36.14 152.481 36.1154 152.469 36.1031C148.361 31.8553 141.642 32.1377 135.755 36.8029C135.602 36.9257 135.384 37.1098 135.179 37.3308C134.936 37.6009 134.936 38.0061 135.205 38.2639L136.894 39.9335L143.523 46.2929C147.286 49.9023 153.403 49.9023 157.178 46.2929C160.941 42.6835 160.941 36.8152 157.178 33.1935L148.847 25.2013C148.553 24.9435 148.13 24.9312 147.849 25.1767Z" fill="#BA975F"/>
<g opacity="0.9">
<path d="M190.783 12.1409C190.895 12.2654 191.107 12.4895 191.344 12.6887C192.317 13.498 193.24 14.1205 194.512 14.8426C194.849 15.0293 195.261 14.9173 195.448 14.5811C195.635 14.245 195.522 13.8341 195.186 13.6474C194.001 12.9751 193.153 12.4024 192.267 11.6678L199.888 4.06083C203.018 0.935871 208.107 0.93587 211.238 4.06083C214.368 7.18579 214.368 12.2654 211.238 15.3904L204.777 21.8395L203.592 22.9973C199.326 17.8057 199.015 12.2032 202.806 8.69225C202.844 8.6549 202.869 8.63 202.894 8.59265C202.906 8.5802 202.931 8.56775 202.943 8.5553C204.041 7.55929 205.787 7.54685 206.772 8.51795C207.808 9.5513 207.82 11.2321 206.797 12.2779C206.772 12.2903 206.76 12.3152 206.735 12.3277C205.787 13.3486 204.665 14.0956 203.43 14.5189C203.068 14.6434 202.881 15.0293 203.006 15.3904C203.131 15.7514 203.517 15.9382 203.879 15.8137C205.313 15.3281 206.598 14.4815 207.695 13.3237C207.72 13.3112 207.733 13.2988 207.758 13.2739C209.342 11.6927 209.342 9.11555 207.758 7.53439C206.249 6.02794 203.667 6.01549 202.02 7.52194C201.983 7.55929 201.958 7.58419 201.921 7.62154C201.908 7.63399 201.883 7.64644 201.871 7.65889C197.555 11.6554 197.842 18.1916 202.582 23.9187C202.706 24.0681 202.894 24.2797 203.118 24.4789C203.392 24.7155 203.804 24.7155 204.066 24.454L205.762 22.8106L212.223 16.3615C215.89 12.7012 215.89 6.75004 212.223 3.07728C208.556 -0.583037 202.594 -0.583037 198.915 3.07728L190.795 11.1823C190.558 11.4562 190.546 11.867 190.783 12.1409Z" fill="#BA975F"/>
<path d="M178.071 24.4671C178.196 24.3551 178.42 24.1434 178.62 23.9069C179.43 22.9358 180.054 22.0145 180.777 20.7446C180.965 20.4084 180.852 19.9976 180.516 19.8108C180.179 19.6241 179.767 19.7361 179.568 20.0723C178.894 21.255 178.32 22.1016 177.585 22.9856L169.964 15.3786C166.833 12.2536 166.833 7.17401 169.964 4.04905C173.095 0.924083 178.183 0.924083 181.314 4.04904L187.774 10.4982L188.934 11.6809C183.733 15.9388 178.121 16.2501 174.604 12.4653C174.566 12.4279 174.541 12.403 174.504 12.3781C174.491 12.3657 174.479 12.3408 174.466 12.3283C173.469 11.2327 173.456 9.48972 174.429 8.50616C175.464 7.47281 177.148 7.46036 178.196 8.48127C178.208 8.50617 178.233 8.51861 178.246 8.54351C179.268 9.48971 180.017 10.6102 180.441 11.8428C180.565 12.2038 180.952 12.3906 181.314 12.2661C181.675 12.1416 181.863 11.7556 181.738 11.3946C181.251 9.96282 180.403 8.68047 179.243 7.58486C179.231 7.55996 179.218 7.54751 179.193 7.52261C177.609 5.94145 175.028 5.94145 173.444 7.52261C171.935 9.02906 171.922 11.6062 173.431 13.2496C173.469 13.287 173.494 13.3119 173.531 13.3492C173.544 13.3617 173.556 13.3866 173.568 13.399C177.572 17.7067 184.12 17.4204 189.857 12.6894C190.007 12.5649 190.219 12.3781 190.419 12.154C190.656 11.8801 190.656 11.4693 190.394 11.2078L188.747 9.51461L182.287 3.0655C178.62 -0.594813 172.646 -0.594813 168.979 3.0655C165.312 6.72581 165.312 12.6769 168.979 16.3497L177.098 24.4547C177.373 24.6912 177.797 24.7037 178.071 24.4671Z" fill="#BA975F"/>
<path d="M203.154 24.8153C203.029 24.9273 202.805 25.139 202.605 25.3756C201.794 26.3467 201.171 27.268 200.447 28.5379C200.26 28.874 200.373 29.2849 200.709 29.4841C201.046 29.6708 201.458 29.5588 201.645 29.2226C202.318 28.0399 202.892 27.1933 203.628 26.3093L211.248 33.9163C214.379 37.0412 214.379 42.1209 211.248 45.2458C208.118 48.3708 203.029 48.3708 199.899 45.2458L193.438 38.7967L192.278 37.6139C197.479 33.356 203.092 33.0448 206.609 36.8296C206.646 36.8669 206.671 36.8918 206.709 36.9167C206.721 36.9292 206.733 36.9541 206.746 36.9665C207.744 38.0621 207.756 39.8051 206.783 40.7887C205.748 41.8221 204.064 41.8345 203.017 40.8136C203.004 40.7887 202.979 40.7763 202.967 40.7514C201.944 39.8051 201.196 38.6846 200.772 37.4521C200.647 37.091 200.26 36.9043 199.899 37.0288C199.537 37.1533 199.35 37.5392 199.475 37.9003C199.961 39.332 200.809 40.6144 201.969 41.71C201.982 41.7349 201.994 41.7474 202.019 41.7723C203.603 43.3534 206.185 43.3534 207.769 41.7723C209.278 40.2658 209.29 37.6886 207.781 36.0452C207.744 36.0079 207.719 35.983 207.681 35.9456C207.669 35.9332 207.656 35.9083 207.644 35.8958C203.64 31.5881 197.092 31.8745 191.355 36.6055C191.205 36.73 190.993 36.9167 190.794 37.1408C190.557 37.4147 190.557 37.8256 190.819 38.087L192.465 39.7803L198.926 46.2294C202.593 49.8897 208.554 49.8897 212.234 46.2294C215.901 42.5691 215.901 36.6179 212.234 32.9452L204.114 24.8402C203.84 24.5787 203.428 24.5663 203.154 24.8153Z" fill="#BA975F"/>
<path d="M190.434 37.166C190.322 37.0415 190.11 36.8174 189.873 36.6182C188.9 35.8089 187.977 35.1864 186.705 34.4643C186.368 34.2776 185.957 34.3896 185.77 34.7258C185.582 35.0619 185.695 35.4728 186.031 35.672C187.216 36.3443 188.064 36.917 188.95 37.6515L181.329 45.2585C178.199 48.3835 173.11 48.3835 169.98 45.2585C166.849 42.1336 166.849 37.0539 169.98 33.929L176.44 27.4799L177.625 26.322C181.891 31.5137 182.202 37.1162 178.411 40.6271C178.373 40.6645 178.349 40.6893 178.324 40.7267C178.311 40.7391 178.286 40.7516 178.274 40.764C177.176 41.7601 175.43 41.7725 174.445 40.8014C173.409 39.768 173.397 38.0873 174.42 37.0415C174.445 37.029 174.457 37.0041 174.482 36.9917C175.43 35.9708 176.553 35.2238 177.787 34.8005C178.149 34.676 178.336 34.29 178.211 33.929C178.087 33.5679 177.7 33.3812 177.338 33.5057C175.904 33.9912 174.619 34.8378 173.522 35.9957C173.497 36.0081 173.484 36.0206 173.459 36.0455C171.875 37.6266 171.875 40.2038 173.459 41.785C174.969 43.2914 177.55 43.3039 179.197 41.7974C179.234 41.7601 179.259 41.7352 179.296 41.6978C179.309 41.6854 179.334 41.6729 179.346 41.6605C183.662 37.664 183.375 31.1277 178.635 25.4007C178.511 25.2513 178.324 25.0396 178.099 24.8404C177.825 24.6039 177.413 24.6039 177.151 24.8653L175.455 26.5088L168.994 32.9579C165.327 36.6182 165.327 42.5693 168.994 46.2421C172.661 49.9024 178.623 49.9024 182.302 46.2421L190.422 38.1371C190.671 37.8507 190.684 37.4399 190.434 37.166Z" fill="#BA975F"/>
</g>
<path d="M92.3471 25.1782C92.2243 25.2888 92.0031 25.4976 91.8066 25.7309C91.008 26.6889 90.3937 27.5979 89.6812 28.8507C89.4969 29.1823 89.6074 29.5876 89.9392 29.7718C90.2709 29.9561 90.6763 29.8455 90.8606 29.5139C91.524 28.3471 92.0891 27.5119 92.814 26.6398L100.32 34.1444C103.404 37.2273 103.404 42.2385 100.32 45.3214C97.2368 48.4043 92.2243 48.4043 89.1406 45.3214L82.7767 38.9591L81.6341 37.7923C86.7572 33.5917 92.2857 33.2846 95.7502 37.0185C95.7871 37.0553 95.8117 37.0799 95.8485 37.1045C95.8608 37.1167 95.8731 37.1413 95.8854 37.1536C96.8682 38.2344 96.8805 39.954 95.9222 40.9243C94.9025 41.9437 93.244 41.956 92.212 40.9489C92.1997 40.9243 92.1751 40.912 92.1628 40.8874C91.1554 39.954 90.4183 38.8486 90.0006 37.6326C89.8777 37.2764 89.4969 37.0922 89.1406 37.215C88.7843 37.3378 88.6 37.7186 88.7229 38.0748C89.202 39.4873 90.0374 40.7523 91.18 41.8332C91.1923 41.8578 91.2046 41.87 91.2291 41.8946C92.7894 43.4545 95.3325 43.4545 96.8928 41.8946C98.3794 40.4084 98.3916 37.866 96.9051 36.2447C96.8682 36.2078 96.8437 36.1833 96.8068 36.1464C96.7945 36.1341 96.7822 36.1096 96.7699 36.0973C92.8263 31.8476 86.3763 32.1301 80.725 36.7974C80.5775 36.9202 80.3687 37.1045 80.1721 37.3255C79.9387 37.5958 79.9387 38.0011 80.1967 38.259L81.8184 39.9294L88.1823 46.2917C91.7943 49.9028 97.6668 49.9028 101.291 46.2917C104.903 42.6807 104.903 36.8097 101.291 33.1864L93.2931 25.1905C93.0351 24.9448 92.6174 24.9326 92.3471 25.1782Z" fill="#BA975F"/>
<path d="M134.822 37.3471C134.711 37.2243 134.502 37.0031 134.269 36.8066C133.311 36.008 132.402 35.3937 131.149 34.6812C130.818 34.4969 130.412 34.6074 130.228 34.9392C130.044 35.2709 130.154 35.6763 130.486 35.8606C131.653 36.524 132.488 37.0891 133.36 37.814L125.856 45.3205C122.773 48.4042 117.761 48.4042 114.679 45.3205C111.596 42.2368 111.596 37.2243 114.679 34.1406L121.041 27.7767L122.208 26.6341C126.408 31.7572 126.715 37.2857 122.982 40.7502C122.945 40.7871 122.92 40.8117 122.896 40.8485C122.883 40.8608 122.859 40.8731 122.846 40.8854C121.766 41.8682 120.046 41.8805 119.076 40.9222C118.056 39.9025 118.044 38.244 119.051 37.212C119.076 37.1997 119.088 37.1751 119.113 37.1628C120.046 36.1554 121.151 35.4183 122.367 35.0006C122.724 34.8777 122.908 34.4969 122.785 34.1406C122.662 33.7843 122.281 33.6 121.925 33.7229C120.513 34.202 119.248 35.0374 118.167 36.18C118.142 36.1923 118.13 36.2046 118.105 36.2291C116.546 37.7894 116.546 40.3325 118.105 41.8928C119.592 43.3793 122.134 43.3916 123.755 41.9051C123.792 41.8682 123.817 41.8437 123.854 41.8068C123.866 41.7945 123.89 41.7822 123.903 41.7699C128.152 37.8263 127.87 31.3763 123.203 25.725C123.08 25.5775 122.896 25.3687 122.674 25.1721C122.404 24.9387 121.999 24.9387 121.741 25.1967L120.071 26.8184L113.708 33.1823C110.097 36.7943 110.097 42.6668 113.708 46.291C117.319 49.903 123.19 49.903 126.814 46.291L134.81 38.2931C135.055 38.0228 135.067 37.6174 134.822 37.3471Z" fill="#BA975F"/>
<path d="M36.8616 25.1767C36.7336 25.2872 36.5033 25.4959 36.2985 25.7292C35.4667 26.6868 34.8268 27.5953 34.0845 28.8475C33.8926 29.179 34.0077 29.5841 34.3533 29.7806C34.6988 29.9647 35.1211 29.8542 35.3131 29.5227C36.0042 28.3564 36.5928 27.5216 37.3479 26.65L45.1672 34.1511C48.3793 37.2326 48.3793 42.2416 45.1672 45.3231C41.955 48.4046 36.7336 48.4046 33.5214 45.3231L26.8923 38.9637L25.7022 37.7974C31.0387 33.5987 36.7976 33.2917 40.4065 37.0239C40.4449 37.0607 40.4705 37.0853 40.5089 37.1098C40.5217 37.1221 40.5345 37.1467 40.5473 37.159C41.5711 38.2393 41.5839 39.9581 40.5857 40.928C39.5235 41.9469 37.7958 41.9592 36.7208 40.9525C36.708 40.928 36.6824 40.9157 36.6696 40.8911C35.6202 39.9581 34.8524 38.8532 34.4173 37.6378C34.2893 37.2817 33.8926 37.0976 33.5214 37.2203C33.1503 37.3431 32.9584 37.7237 33.0863 38.0797C33.5854 39.4916 34.4557 40.7561 35.6458 41.8364C35.6586 41.861 35.6714 41.8733 35.697 41.8978C37.3223 43.457 39.9714 43.457 41.5967 41.8978C43.1452 40.4123 43.158 37.871 41.6095 36.2505C41.5711 36.2136 41.5455 36.1891 41.5071 36.1523C41.4943 36.14 41.4815 36.1154 41.4687 36.1031C37.3607 31.8553 30.642 32.1377 24.7552 36.8029C24.6016 36.9257 24.384 37.1098 24.1793 37.3308C23.9361 37.6009 23.9361 38.0061 24.2049 38.2639L25.8941 39.9335L32.5232 46.2929C36.2857 49.9023 42.4029 49.9023 46.1782 46.2929C49.9406 42.6835 49.9406 36.8152 46.1782 33.1935L37.847 25.2013C37.5782 24.9435 37.1431 24.9312 36.8616 25.1767Z" fill="#BA975F"/>
<path d="M79.8144 37.3348C79.6992 37.212 79.4817 36.9908 79.2386 36.7943C78.2407 35.9957 77.2939 35.3814 75.9889 34.6689C75.6435 34.4846 75.2212 34.5952 75.0293 34.9269C74.8374 35.2586 74.9526 35.664 75.298 35.8606C76.5135 36.524 77.3835 37.0891 78.2919 37.814L70.4746 45.3205C67.2632 48.4041 62.0432 48.4041 58.8319 45.3205C55.6205 42.2368 55.6205 37.2243 58.8319 34.1406L65.4593 27.7767L66.6747 26.6341C71.0503 31.7572 71.3702 37.2857 67.4807 40.7502C67.4424 40.7871 67.4168 40.8117 67.3912 40.8485C67.3784 40.8608 67.3528 40.8731 67.34 40.8854C66.2141 41.8682 64.4229 41.8805 63.4122 40.9222C62.3503 39.9025 62.3375 38.244 63.3866 37.212C63.4122 37.1997 63.425 37.1751 63.4506 37.1628C64.4229 36.1554 65.5744 35.4183 66.841 35.0006C67.2121 34.8777 67.404 34.4969 67.276 34.1406C67.1481 33.7843 66.7515 33.6 66.3804 33.7229C64.9091 34.202 63.5913 35.0374 62.4654 36.18C62.4398 36.1923 62.427 36.2046 62.4015 36.2291C60.7766 37.7894 60.7766 40.3325 62.4015 41.8928C63.9496 43.3793 66.5979 43.3916 68.2868 41.9051C68.3252 41.8682 68.3508 41.8436 68.3891 41.8068C68.4019 41.7945 68.4275 41.7822 68.4403 41.7699C72.8671 37.8263 72.5728 31.3763 67.711 25.725C67.5831 25.5775 67.3912 25.3687 67.1609 25.1721C66.8794 24.9387 66.4572 24.9387 66.1885 25.1967L64.4485 26.8184L57.8211 33.1823C54.0596 36.7943 54.0596 42.6668 57.8211 46.291C61.5826 49.903 67.6983 49.903 71.4725 46.291L79.8016 38.2931C80.0575 38.0105 80.0703 37.6051 79.8144 37.3348Z" fill="#BA975F"/>
<path d="M23.8218 37.3348C23.7113 37.212 23.5025 36.9908 23.2691 36.7943C22.3111 35.9957 21.4022 35.3814 20.1493 34.6689C19.8177 34.4846 19.4124 34.5952 19.2282 34.9269C19.0439 35.2586 19.1545 35.664 19.4861 35.8606C20.6529 36.524 21.4881 37.0891 22.3602 37.814L14.8556 45.3205C11.7727 48.4041 6.76148 48.4041 3.67859 45.3205C0.595698 42.2368 0.595698 37.2243 3.67859 34.1406L10.0409 27.7767L11.2077 26.6341C15.4083 31.7572 15.7154 37.2857 11.9815 40.7502C11.9447 40.7871 11.9201 40.8117 11.8955 40.8485C11.8833 40.8608 11.8587 40.8731 11.8464 40.8854C10.7656 41.8682 9.04602 41.8805 8.0757 40.9222C7.05626 39.9025 7.04398 38.244 8.05114 37.212C8.0757 37.1997 8.08799 37.1751 8.11255 37.1628C9.04602 36.1554 10.1514 35.4183 11.3674 35.0006C11.7236 34.8777 11.9078 34.4969 11.785 34.1406C11.6622 33.7843 11.2814 33.6 10.9252 33.7229C9.51275 34.202 8.24766 35.0374 7.1668 36.18C7.14224 36.1923 7.12996 36.2046 7.10539 36.2291C5.54552 37.7894 5.54552 40.3325 7.10539 41.8928C8.59157 43.3793 11.134 43.3916 12.7553 41.9051C12.7922 41.8682 12.8167 41.8436 12.8536 41.8068C12.8659 41.7945 12.8904 41.7822 12.9027 41.7699C17.1524 37.8263 16.8699 31.3763 12.2026 25.725C12.0798 25.5775 11.8955 25.3687 11.6745 25.1721C11.4042 24.9387 10.9989 24.9387 10.741 25.1967L9.07058 26.8184L2.70828 33.1823C-0.90276 36.7943 -0.90276 42.6668 2.70828 46.291C6.31932 49.903 12.1903 49.903 15.8136 46.291L23.8095 38.2931C24.0552 38.0105 24.0674 37.6051 23.8218 37.3348Z" fill="#BA975F"/>
</svg>
