<svg width="324" height="289" viewBox="0 0 324 289" fill="none" xmlns="http://www.w3.org/2000/svg">
<path opacity="0.8" d="M277.739 186.505L277.737 186.507C271.348 194.626 264.79 201.791 258.41 207.745C230.481 233.449 192.655 257.555 152.182 272.475C111.705 287.397 68.6271 293.117 30.1702 282.117C14.0348 277.5 5.94325 269.887 2.79283 260.559C-0.372671 251.186 1.40142 239.953 5.31039 228.004C8.28757 218.902 12.4779 209.454 16.5972 200.165C17.8841 197.264 19.164 194.378 20.3978 191.523C25.5663 179.564 29.9344 168.133 30.4874 158.516L30.4874 158.515C30.9556 150.261 29.9382 141.922 28.4873 133.603C27.8624 130.02 27.1606 126.456 26.4609 122.904C25.529 118.172 24.6008 113.459 23.8631 108.744C21.2898 92.2963 21.1219 76.2632 31.5014 61.2052L31.5018 61.2046C38.9265 50.3992 47.5014 44.3545 56.7914 41.3478C66.0941 38.3369 76.1531 38.3596 86.5602 39.7601C95.0739 40.9058 103.785 42.9677 112.486 45.0268C114.427 45.4862 116.367 45.9454 118.305 46.3943C128.909 48.8513 139.42 50.9965 149.364 51.1081L149.364 51.1081C161.394 51.2252 173.041 46.684 184.465 40.3347C192.158 36.0591 199.789 30.9384 207.383 25.8434C211.053 23.3806 214.715 20.9239 218.37 18.5715C229.615 11.3342 240.825 5.06553 252.209 2.47605C263.567 -0.107552 275.108 0.969293 287.05 8.45391C318.944 28.4407 326.782 60.1066 321.56 93.2403C316.334 126.397 298.03 160.952 277.739 186.505Z" stroke="#BA975F"/>
</svg>
