<svg width="347" height="261" viewBox="0 0 347 261" fill="none" xmlns="http://www.w3.org/2000/svg">
<path opacity="0.8" d="M283.832 187.105L283.831 187.106C276.337 194.219 268.814 200.363 261.642 205.334C230.297 226.741 189.389 245.138 147.187 254.064C104.981 262.991 61.5287 262.436 25.0608 246.003C9.7601 239.108 2.85146 230.407 1.07964 220.722C-0.70066 210.99 2.67528 200.131 8.26721 188.87C12.5262 180.293 18.0357 171.548 23.4518 162.951C25.1438 160.265 26.8267 157.594 28.4594 154.947C35.299 143.859 41.2704 133.177 43.2049 123.741L43.2049 123.741C44.8591 115.64 45.0552 107.242 44.8196 98.8002C44.7181 95.1641 44.5377 91.5368 44.3578 87.9204C44.1182 83.1036 43.8796 78.3063 43.8298 73.5341C43.6561 56.8873 45.8028 40.9977 58.2459 27.5945L58.2464 27.594C67.1522 17.9726 76.5094 13.2281 86.136 11.593C95.7757 9.95561 105.726 11.4291 115.822 14.3163C124.082 16.6782 132.405 19.9751 140.717 23.2678C142.572 24.0024 144.425 24.7367 146.278 25.4605C156.417 29.4214 166.508 33.0605 176.332 34.6054L176.333 34.6055C188.219 36.4567 200.4 33.6432 212.62 29.0082C220.849 25.887 229.14 21.9208 237.389 17.9746C241.376 16.067 245.354 14.1642 249.31 12.3636C261.482 6.82426 273.479 2.23822 285.117 1.31806C296.729 0.399993 307.994 3.13038 318.731 12.2593C347.408 36.638 350.596 69.1034 340.649 101.137C330.695 133.193 307.598 164.747 283.832 187.105Z" stroke="#BA975F"/>
</svg>
