<svg width="84" height="84" viewBox="0 0 84 84" fill="none" xmlns="http://www.w3.org/2000/svg">
<path d="M41.6201 34.8034C41.8669 42.806 55.1577 45.7492 57.792 36.4572C61.6552 23.887 40.4304 21.7038 41.6201 34.8034Z" fill="#BA975F"/>
<path d="M29.8699 58.0226C34.8747 53.6244 35.3665 46.0018 30.9683 40.9971C26.5702 35.9923 18.9476 35.5005 13.9428 39.8986C8.93804 44.2968 8.44626 51.9194 12.8444 56.9241C17.2425 61.9289 24.8651 62.4207 29.8699 58.0226Z" fill="#BA975F"/>
<path d="M77.2076 35.3811C79.4499 33.4106 79.6702 29.9955 77.6997 27.7532C75.7292 25.5109 72.314 25.2906 70.0718 27.2611C67.8295 29.2316 67.6091 32.6467 69.5796 34.889C71.5501 37.1313 74.9653 37.3516 77.2076 35.3811Z" fill="#BA975F"/>
</svg>
