<svg width="48" height="48" viewBox="0 0 48 48" fill="none" xmlns="http://www.w3.org/2000/svg">
<path d="M47.636 35.5504C47.636 35.8112 47.6281 36.3769 47.6124 36.8139C47.5741 37.883 47.4893 39.2627 47.3611 39.8913C47.1685 40.836 46.8777 41.7276 46.4985 42.4697C46.0499 43.3476 45.4777 44.134 44.7978 44.8127C44.1193 45.4901 43.3336 46.0601 42.457 46.5069C41.711 46.887 40.8138 47.178 39.8638 47.3698C39.2414 47.4954 37.8721 47.5786 36.8097 47.6163C36.3723 47.632 35.8065 47.6398 35.5467 47.6398L12.0894 47.6361C11.8286 47.6361 11.263 47.6281 10.826 47.6124C9.75678 47.5741 8.37714 47.4893 7.7485 47.3612C6.80384 47.1685 5.91216 46.8777 5.17005 46.4986C4.2921 46.0499 3.50575 45.4777 2.82705 44.7978C2.1497 44.1193 1.57972 43.3337 1.13298 42.4571C0.752715 41.711 0.461771 40.8138 0.269963 39.8638C0.144356 39.2414 0.0612221 37.8721 0.0234002 36.8097C0.00786211 36.3724 0 35.8066 0 35.5468L0.00372171 12.0894C0.00372171 11.8286 0.0116769 11.2629 0.0273545 10.826C0.0657346 9.75677 0.15045 8.37713 0.278616 7.74854C0.471261 6.80388 0.762019 5.9122 1.14121 5.17005C1.58982 4.29215 2.16208 3.50575 2.84199 2.82705C3.52045 2.14975 4.30611 1.57972 5.18271 1.13293C5.92877 0.752761 6.82603 0.461817 7.77604 0.270009C8.39835 0.144356 9.76771 0.061222 10.8301 0.0234467C11.2675 0.0078621 11.8333 0 12.0931 0L35.5504 0.00376822C35.8113 0.00376822 36.3769 0.0117234 36.8139 0.027401C37.8831 0.0657811 39.2626 0.150496 39.8913 0.278662C40.836 0.471307 41.7276 0.762065 42.4698 1.14126C43.3477 1.58986 44.134 2.16212 44.8127 2.84203C45.49 3.5205 46.0601 4.3061 46.5068 5.18275C46.8871 5.92881 47.178 6.82602 47.3698 7.77603C47.4954 8.39839 47.5785 9.7677 47.6164 10.8301C47.632 11.2675 47.6398 11.8333 47.6398 12.0932L47.636 35.5504Z" fill="url(#paint0_linear_744_1127)"/>
<path d="M9.44727 28.6395V18.92C9.44727 16.2402 10.8971 14.7766 13.6043 14.7766H25.4811C28.1745 14.7766 29.6381 16.2402 29.6381 18.92V28.6395C29.6381 31.3193 28.1745 32.7829 25.4811 32.7829H13.6043C10.9108 32.7829 9.44727 31.3193 9.44727 28.6395ZM30.442 20.8886L35.6641 16.6319C36.0279 16.2875 36.5006 16.0809 37.0005 16.0478C37.7117 16.0478 38.1927 16.5425 38.1927 17.4221V30.4775C38.1927 31.3674 37.7117 31.8518 37.0005 31.8518C36.4995 31.8234 36.0253 31.6162 35.6641 31.2677L30.442 26.9732V20.8886Z" fill="#FEFEFE"/>
<defs>
<linearGradient id="paint0_linear_744_1127" x1="23.8199" y1="0" x2="23.8199" y2="47.6399" gradientUnits="userSpaceOnUse">
<stop stop-color="#5AF675"/>
<stop offset="1" stop-color="#10BE2C"/>
</linearGradient>
</defs>
</svg>
