<svg width="50" height="49" viewBox="0 0 50 49" fill="none" xmlns="http://www.w3.org/2000/svg">
<path d="M37.2069 49H28.9067L25.1165 47.7502L21.3536 49H13.0126C6.16588 49 0.609741 43.4439 0.609741 36.5972V12.4028C0.609741 5.55614 6.16588 0 13.0126 0H37.2069C44.0536 0 49.6097 5.55614 49.6097 12.4028V36.5972C49.6097 43.4439 44.0536 49 37.2069 49Z" fill="#BA975F"/>
<path d="M21.3264 19.168V24.4932H15.1861V31.4893H21.3264V48.9864H28.8931V31.4893H34.5307L35.6039 24.4932H28.8931V19.9559C28.8931 18.0404 29.8304 16.1793 32.8326 16.1793H35.8892V10.2292C35.8892 10.2292 33.1179 9.75378 30.4689 9.75378C24.9399 9.75378 21.3264 13.0956 21.3264 19.168Z" fill="white"/>
</svg>
