<svg width="49" height="49" viewBox="0 0 49 49" fill="none" xmlns="http://www.w3.org/2000/svg">
<path d="M36.5972 48.9864H12.4028C5.55614 48.9864 0 43.4439 0 36.5836V12.4028C0 5.55614 5.55614 0 12.4028 0H36.5972C43.4439 0 49 5.55614 49 12.4028V36.5972C49 43.4438 43.4439 48.9864 36.5972 48.9864Z" fill="#BA975F"/>
<path fill-rule="evenodd" clip-rule="evenodd" d="M10.0697 20.3406H16.2494V39.3957H10.0697V20.3406ZM13.1605 10.8684C15.1365 10.8684 16.742 12.407 16.742 14.3007C16.742 16.1962 15.1365 17.7354 13.1605 17.7354C12.6843 17.7441 12.2111 17.6617 11.7685 17.493C11.3259 17.3243 10.9229 17.0728 10.5829 16.7531C10.243 16.4334 9.97292 16.052 9.78857 15.6311C9.60423 15.2102 9.50928 14.7584 9.50928 14.3019C9.50928 13.8455 9.60423 13.3936 9.78857 12.9727C9.97292 12.5519 10.243 12.1704 10.5829 11.8508C10.9229 11.5311 11.3259 11.2795 11.7685 11.1109C12.2111 10.9422 12.6843 10.8598 13.1605 10.8684ZM20.1256 20.34H26.053V22.9439H26.1352C26.9604 21.4459 28.9762 19.8667 31.9822 19.8667C38.2397 19.8667 39.3956 23.8135 39.3956 28.9443V39.3957H33.2197V30.1291C33.2197 27.9196 33.1773 25.077 30.0088 25.077C26.7934 25.077 26.2996 27.4839 26.2996 29.9697V39.3957H20.125V20.3406L20.1256 20.34Z" fill="white"/>
</svg>
