<svg width="65" height="65" viewBox="0 0 65 65" fill="none" xmlns="http://www.w3.org/2000/svg">
<circle cx="32.5" cy="32.5" r="32.5" fill="#117EB8"/>
<path d="M53.4444 10H12.5556C11.1442 10 10 11.0964 10 12.4488V51.6299C10 52.9823 11.1442 54.0787 12.5556 54.0787H53.4444C54.8558 54.0787 56 52.9823 56 51.6299V12.4488C56 11.0964 54.8558 10 53.4444 10Z" fill="#117EB8"/>
<path fill-rule="evenodd" clip-rule="evenodd" d="M18.3935 27.0489H24.5415V46.004H18.3935V27.0489ZM21.4684 17.6265C23.4343 17.6265 25.0315 19.157 25.0315 21.0407C25.0315 22.9263 23.4343 24.4574 21.4684 24.4574C20.9947 24.466 20.5239 24.384 20.0836 24.2163C19.6433 24.0485 19.2423 23.7983 18.9041 23.4803C18.5659 23.1622 18.2972 22.7828 18.1138 22.3642C17.9304 21.9455 17.8359 21.496 17.8359 21.042C17.8359 20.5879 17.9304 20.1384 18.1138 19.7197C18.2972 19.3011 18.5659 18.9217 18.9041 18.6036C19.2423 18.2856 19.6433 18.0354 20.0836 17.8676C20.5239 17.6999 20.9947 17.6179 21.4684 17.6265ZM28.3978 27.0483H34.2948V29.6385H34.3765C35.1975 28.1484 37.203 26.5775 40.1936 26.5775C46.419 26.5775 47.569 30.5036 47.569 35.6075V46.004H41.4248V36.786C41.4248 34.5882 41.3826 31.7604 38.2303 31.7604C35.0314 31.7604 34.5401 34.1547 34.5401 36.6274V46.004H28.3972V27.0489L28.3978 27.0483Z" fill="white"/>
</svg>
