<svg width="48" height="48" viewBox="0 0 48 48" fill="none" xmlns="http://www.w3.org/2000/svg">
<path d="M47.636 35.5504C47.636 35.8112 47.6281 36.3769 47.6124 36.8139C47.5741 37.883 47.4893 39.2627 47.3611 39.8913C47.1685 40.836 46.8777 41.7276 46.4985 42.4697C46.0499 43.3476 45.4777 44.134 44.7978 44.8127C44.1193 45.4901 43.3336 46.0601 42.457 46.5069C41.711 46.887 40.8138 47.178 39.8638 47.3698C39.2414 47.4954 37.8721 47.5786 36.8097 47.6163C36.3723 47.632 35.8065 47.6398 35.5467 47.6398L12.0894 47.6361C11.8286 47.6361 11.263 47.6281 10.826 47.6124C9.75678 47.5741 8.37714 47.4893 7.7485 47.3612C6.80384 47.1685 5.91216 46.8777 5.17005 46.4986C4.2921 46.0499 3.50575 45.4777 2.82705 44.7978C2.1497 44.1193 1.57972 43.3337 1.13298 42.4571C0.752715 41.711 0.461771 40.8138 0.269963 39.8638C0.144356 39.2414 0.0612221 37.8721 0.0234002 36.8097C0.00786211 36.3724 0 35.8066 0 35.5468L0.00372171 12.0894C0.00372171 11.8286 0.0116769 11.2629 0.0273545 10.826C0.0657346 9.75677 0.15045 8.37713 0.278616 7.74854C0.471261 6.80388 0.762019 5.9122 1.14121 5.17005C1.58982 4.29215 2.16208 3.50575 2.84199 2.82705C3.52045 2.14975 4.30611 1.57972 5.18271 1.13293C5.92877 0.752761 6.82603 0.461817 7.77604 0.270009C8.39835 0.144356 9.76771 0.061222 10.8301 0.0234467C11.2675 0.0078621 11.8333 0 12.0931 0L35.5504 0.00376822C35.8113 0.00376822 36.3769 0.0117234 36.8139 0.027401C37.8831 0.0657811 39.2626 0.150496 39.8913 0.278662C40.836 0.471307 41.7276 0.762065 42.4698 1.14126C43.3477 1.58986 44.134 2.16212 44.8127 2.84203C45.49 3.5205 46.0601 4.3061 46.5068 5.18275C46.8871 5.92881 47.178 6.82602 47.3698 7.77603C47.4954 8.39839 47.5785 9.7677 47.6164 10.8301C47.632 11.2675 47.6398 11.8333 47.6398 12.0932L47.636 35.5504Z" fill="url(#paint0_linear_744_1130)"/>
<path d="M32.0192 29.3734V32.994C32.0176 33.5345 31.8011 34.0524 31.4171 34.4346C31.033 34.8168 30.5126 35.0322 29.9695 35.0338H16.6465V28.9144H25.8701V23.8149L32.0192 29.3734Z" fill="#00AC47"/>
<path d="M32.0182 18.7153V29.3732L25.8691 23.8148V18.7153H32.0182Z" fill="#31A950"/>
<path d="M16.6471 12.5962V18.7156H10.498L16.6471 12.5962Z" fill="#EA4435"/>
<path d="M16.6471 18.7156H10.498V29.9344H16.6471V18.7156Z" fill="#4285F4"/>
<path d="M32.0192 14.636V18.7156H31.5068L25.8701 23.815V18.7156H16.6465V12.5962H29.9695C30.5126 12.5978 31.033 12.8132 31.4171 13.1954C31.8011 13.5776 32.0176 14.0955 32.0192 14.636Z" fill="#FFBA00"/>
<path d="M16.6471 28.9143V35.0337H12.5477C12.0046 35.0321 11.4842 34.8167 11.1002 34.4345C10.7161 34.0523 10.4996 33.5344 10.498 32.9939V28.9143H16.6471Z" fill="#0066DA"/>
<path d="M37.1425 15.9207V31.7087C37.1425 31.906 37.0849 32.0991 36.9768 32.2644C36.8687 32.4298 36.7147 32.5604 36.5335 32.6403C36.3522 32.7202 36.1516 32.746 35.9559 32.7146C35.7601 32.6833 35.5778 32.596 35.431 32.4635L32.0182 29.3732L25.8691 23.8147L31.5058 18.7153L32.0182 18.2563L35.431 15.166C35.5778 15.0335 35.7601 14.9462 35.9559 14.9148C36.1516 14.8834 36.3522 14.9093 36.5335 14.9892C36.7147 15.0691 36.8687 15.1997 36.9768 15.3651C37.0849 15.5304 37.1425 15.7235 37.1425 15.9207Z" fill="#00AC47"/>
<path d="M32.0182 18.2568V29.3737L25.8691 23.8153L31.5058 18.7158L32.0182 18.2568Z" fill="#188038"/>
<defs>
<linearGradient id="paint0_linear_744_1130" x1="23.8199" y1="0" x2="23.8199" y2="47.6399" gradientUnits="userSpaceOnUse">
<stop stop-color="#EFEFEE"/>
<stop offset="1" stop-color="#FCFAF8"/>
</linearGradient>
</defs>
</svg>
