<svg width="20" height="23" viewBox="0 0 20 23" fill="none" xmlns="http://www.w3.org/2000/svg">
<path d="M18.9985 0.83677C18.8264 0.827868 18.5094 0.819092 18.1924 0.846546C16.8972 0.965438 15.774 1.18379 14.3246 1.58358C13.9441 1.69259 13.7264 2.07316 13.8347 2.45344C13.9431 2.83372 14.3233 3.05074 14.7037 2.94172C16.0535 2.56919 17.0861 2.36902 18.2636 2.25929L18.2537 13.3265C18.2496 17.8729 14.5513 21.5713 10.0048 21.5753C5.45843 21.5794 1.76663 17.8876 1.77069 13.3412L1.77908 3.95856L1.79872 2.25591C8.67207 2.92901 12.9705 6.77422 12.7665 12.0816C12.7665 12.1359 12.7664 12.1721 12.7754 12.2174C12.7754 12.2355 12.7663 12.2627 12.7663 12.2808C12.6925 13.8024 11.4325 15.0805 10.0106 15.0908C8.50722 15.0921 7.27662 13.8797 7.25985 12.3763C7.26893 12.3491 7.25989 12.3219 7.26897 12.2948C7.21591 10.8639 7.48884 9.50515 8.07859 8.3001C8.25098 7.94674 8.10644 7.53025 7.75339 7.35849C7.40033 7.18673 6.98361 7.33201 6.81121 7.68537C6.12167 9.0807 5.8033 10.6297 5.84712 12.2689C5.83804 12.296 5.83803 12.3142 5.838 12.3504C5.83594 14.6508 7.70897 16.5238 10.0093 16.5217C12.201 16.5198 14.0865 14.6525 14.1882 12.361C14.1882 12.3067 14.1882 12.2705 14.1883 12.2161C14.1883 12.198 14.1974 12.1708 14.1974 12.1527C14.4292 6.11177 9.47025 1.56979 1.86335 0.852061C1.66412 0.834126 1.37435 0.81629 1.06641 0.834678C0.69506 0.86218 0.395917 1.1613 0.395576 1.54168L0.357189 3.96889L0.348799 13.3515C0.344042 18.6768 4.67829 23.011 10.0036 23.0063C15.3288 23.0015 19.6618 18.6686 19.6756 13.3343L19.6861 1.54256C19.6683 1.1622 19.3788 0.854544 18.9985 0.83677Z" fill="#BA975F"/>
</svg>
