<svg width="1146" height="17" viewBox="0 0 1146 17" fill="none" xmlns="http://www.w3.org/2000/svg">
<path d="M573.067 2.78101C570.158 2.78101 567.795 5.11957 567.795 8.01432C567.795 10.9091 570.158 13.2476 573.067 13.2476C575.977 13.2476 578.34 10.9091 578.34 8.01432C578.352 5.11957 575.989 2.78101 573.067 2.78101ZM573.067 11.263C571.263 11.263 569.79 9.80933 569.79 8.01432C569.79 6.21932 571.251 4.76562 573.067 4.76562C574.871 4.76562 576.345 6.21932 576.345 8.01432C576.345 9.80933 574.884 11.263 573.067 11.263Z" fill="#BA975F"/>
<path d="M573.067 11.263C574.877 11.263 576.345 9.80853 576.345 8.01433C576.345 6.22012 574.877 4.76562 573.067 4.76562C571.257 4.76562 569.789 6.22012 569.789 8.01433C569.789 9.80853 571.257 11.263 573.067 11.263Z" fill="#BA975F"/>
<path d="M573.067 0C568.621 0 565 3.59001 565 8.01431C565 12.4386 568.621 16.0286 573.067 16.0286C577.514 16.0286 581.135 12.4386 581.135 8.01431C581.147 3.59001 577.527 0 573.067 0ZM573.067 13.2476C570.158 13.2476 567.795 10.9091 567.795 8.01431C567.795 5.11955 570.158 2.78099 573.067 2.78099C575.977 2.78099 578.34 5.11955 578.34 8.01431C578.352 10.9091 575.989 13.2476 573.067 13.2476Z" fill="#BA975F"/>
<path d="M32.0405 8.06795C30.5922 8.06795 29.1566 7.6508 28.0005 6.76594C27.1493 6.12126 26.387 5.2364 25.9932 4.03552C25.0149 5.61562 23.5285 6.62689 22.0294 7.25894C19.7172 6.22238 16.9477 4.3389 15.8551 1.00171C13.581 4.70548 9.61722 6.56369 6.23786 7.49911C2.83308 8.40925 0 8.40925 0 8.40925C0 8.40925 2.83308 8.40925 6.23786 9.34468C9.62993 10.2548 13.5937 12.113 15.8551 15.8294C16.9477 12.4923 19.7299 10.5961 22.0294 9.54693C23.5285 10.1916 25.0149 11.2029 25.9932 12.7956C26.2854 11.8981 26.7809 11.1776 27.3653 10.5961C28.6103 9.36996 30.3254 8.7632 32.0786 8.7632L32.0405 8.06795Z" fill="#BA975F"/>
<path d="M25 7.01245V8.51489V10.0173H566V8.51489V7.01245H25Z" fill="#BA975F"/>
<path d="M1113.96 8.06795C1115.41 8.06795 1116.84 7.6508 1118 6.76594C1118.85 6.12126 1119.61 5.2364 1120.01 4.03552C1120.99 5.61562 1122.47 6.62689 1123.97 7.25894C1126.28 6.22238 1129.05 4.3389 1130.14 1.00171C1132.42 4.70548 1136.38 6.56369 1139.76 7.49911C1143.17 8.40925 1146 8.40925 1146 8.40925C1146 8.40925 1143.17 8.40925 1139.76 9.34468C1136.37 10.2548 1132.41 12.113 1130.14 15.8294C1129.05 12.4923 1126.27 10.5961 1123.97 9.54693C1122.47 10.1916 1120.99 11.2029 1120.01 12.7956C1119.71 11.8981 1119.22 11.1776 1118.63 10.5961C1117.39 9.36996 1115.67 8.7632 1113.92 8.7632L1113.96 8.06795Z" fill="#BA975F"/>
<path d="M1121 7.01245V8.51489V10.0173H580V8.51489V7.01245H1121Z" fill="#BA975F"/>
</svg>
