<svg width="48" height="48" viewBox="0 0 48 48" fill="none" xmlns="http://www.w3.org/2000/svg">
<path d="M47.636 35.5504C47.636 35.8112 47.6281 36.3769 47.6124 36.8139C47.5741 37.883 47.4893 39.2627 47.3611 39.8913C47.1685 40.836 46.8777 41.7276 46.4985 42.4697C46.0499 43.3476 45.4777 44.134 44.7978 44.8127C44.1193 45.4901 43.3336 46.0601 42.457 46.5069C41.711 46.887 40.8138 47.178 39.8638 47.3698C39.2414 47.4954 37.8721 47.5786 36.8097 47.6163C36.3723 47.632 35.8065 47.6398 35.5467 47.6398L12.0894 47.6361C11.8286 47.6361 11.263 47.6281 10.826 47.6124C9.75678 47.5741 8.37714 47.4893 7.7485 47.3612C6.80384 47.1685 5.91216 46.8777 5.17005 46.4986C4.2921 46.0499 3.50575 45.4777 2.82705 44.7978C2.1497 44.1193 1.57972 43.3337 1.13298 42.4571C0.752715 41.711 0.461771 40.8138 0.269963 39.8638C0.144356 39.2414 0.0612221 37.8721 0.0234002 36.8097C0.00786211 36.3724 0 35.8066 0 35.5468L0.00372171 12.0894C0.00372171 11.8286 0.0116769 11.2629 0.0273545 10.826C0.0657346 9.75677 0.15045 8.37713 0.278616 7.74854C0.471261 6.80388 0.762019 5.9122 1.14121 5.17005C1.58982 4.29215 2.16208 3.50575 2.84199 2.82705C3.52045 2.14975 4.30611 1.57972 5.18271 1.13293C5.92877 0.752761 6.82603 0.461817 7.77604 0.270009C8.39835 0.144356 9.76771 0.061222 10.8301 0.0234467C11.2675 0.0078621 11.8333 0 12.0931 0L35.5504 0.00376822C35.8113 0.00376822 36.3769 0.0117234 36.8139 0.027401C37.8831 0.0657811 39.2626 0.150496 39.8913 0.278662C40.836 0.471307 41.7276 0.762065 42.4698 1.14126C43.3477 1.58986 44.134 2.16212 44.8127 2.84203C45.49 3.5205 46.0601 4.3061 46.5068 5.18275C46.8871 5.92881 47.178 6.82602 47.3698 7.77603C47.4954 8.39839 47.5785 9.7677 47.6164 10.8301C47.632 11.2675 47.6398 11.8333 47.6398 12.0932L47.636 35.5504Z" fill="url(#paint0_linear_744_1121)"/>
<path d="M36.4225 11.2971C33.1965 8.07532 28.9064 6.30015 24.3355 6.29834C14.9176 6.29834 7.25251 13.9441 7.24874 23.3421C7.24753 26.3461 8.03432 29.2785 9.52954 31.8633L7.10547 40.6959L16.1634 38.3257C18.6591 39.6836 21.4689 40.3992 24.3287 40.4004H24.3357C33.7527 40.4004 41.4185 32.7537 41.4223 23.3556C41.4241 18.8013 39.6485 14.5188 36.4225 11.2971ZM24.3357 37.5217H24.3299C21.7816 37.5207 19.2821 36.8378 17.1016 35.547L16.583 35.24L11.2079 36.6465L12.6426 31.4187L12.3049 30.8827C10.8833 28.6271 10.1324 26.02 10.1336 23.3432C10.1366 15.532 16.5076 9.1771 24.3412 9.1771C28.1345 9.17854 31.7002 10.6541 34.3816 13.3319C37.0629 16.0096 38.5387 19.5691 38.5373 23.3546C38.5343 31.1663 32.1634 37.5217 24.3357 37.5217ZM32.1257 26.9114C31.6987 26.6982 29.5997 25.6678 29.2083 25.5257C28.817 25.3835 28.5324 25.3125 28.2477 25.7389C27.9632 26.1652 27.145 27.1246 26.8959 27.4088C26.6468 27.693 26.3978 27.7286 25.9709 27.5154C25.5439 27.3022 24.1683 26.8525 22.5375 25.4015C21.2684 24.2724 20.4115 22.8776 20.1625 22.4511C19.9134 22.0248 20.136 21.7943 20.3497 21.5819C20.5417 21.3912 20.7766 21.0845 20.9901 20.8358C21.2036 20.5872 21.2747 20.4094 21.417 20.1252C21.5594 19.841 21.4882 19.5923 21.3814 19.3791C21.2747 19.1659 20.4209 17.0696 20.0651 16.2169C19.7186 15.3864 19.3665 15.4988 19.1045 15.4858C18.8557 15.4734 18.5708 15.4708 18.2862 15.4708C18.0016 15.4708 17.5391 15.5774 17.1477 16.0037C16.7564 16.4301 15.6535 17.4605 15.6535 19.5567C15.6535 21.653 17.1833 23.6782 17.3968 23.9624C17.6103 24.2466 20.4073 28.5485 24.6901 30.3933C25.7087 30.832 26.5039 31.0941 27.124 31.2904C28.1467 31.6145 29.0774 31.5688 29.8131 31.4591C30.6334 31.3369 32.339 30.4289 32.6949 29.434C33.0507 28.4391 33.0507 27.5865 32.9439 27.4088C32.8372 27.2312 32.5526 27.1246 32.1257 26.9114Z" fill="white"/>
<defs>
<linearGradient id="paint0_linear_744_1121" x1="23.8199" y1="0" x2="23.8199" y2="47.6399" gradientUnits="userSpaceOnUse">
<stop stop-color="#61FD7D"/>
<stop offset="1" stop-color="#2BB826"/>
</linearGradient>
</defs>
</svg>
