<svg width="24" height="24" viewBox="0 0 24 24" fill="none" xmlns="http://www.w3.org/2000/svg">
<g id="whatsapp 2" clip-path="url(#clip0_1_974)">
<path id="Vector" d="M12.003 0H11.997C5.38052 0 1.57454e-05 5.382 1.57454e-05 12C-0.0040929 14.5275 0.795989 16.9908 2.28452 19.0335L0.789016 23.4915L5.40152 22.017C7.35807 23.3151 9.65503 24.005 12.003 24C18.6195 24 24 18.6165 24 12C24 5.3835 18.6195 0 12.003 0Z" fill="#4CAF50"/>
<path id="Vector_2" d="M18.9848 16.457C18.6953 17.2745 17.5463 17.9525 16.6298 18.1505C16.0028 18.284 15.1838 18.3905 12.4268 17.2475C8.90034 15.7865 6.62934 12.203 6.45234 11.9705C6.28284 11.738 5.02734 10.073 5.02734 8.351C5.02734 6.629 5.90184 5.7905 6.25434 5.4305C6.54384 5.135 7.02234 5 7.48134 5C7.62984 5 7.76334 5.0075 7.88334 5.0135C8.23584 5.0285 8.41284 5.0495 8.64534 5.606C8.93484 6.3035 9.63984 8.0255 9.72384 8.2025C9.80934 8.3795 9.89484 8.6195 9.77484 8.852C9.66234 9.092 9.56334 9.1985 9.38634 9.4025C9.20934 9.6065 9.04134 9.7625 8.86434 9.9815C8.70234 10.172 8.51934 10.376 8.72334 10.7285C8.92734 11.0735 9.63234 12.224 10.6703 13.148C12.0098 14.3405 13.0958 14.7215 13.4843 14.8835C13.7738 15.0035 14.1188 14.975 14.3303 14.75C14.5988 14.4605 14.9303 13.9805 15.2678 13.508C15.5078 13.169 15.8108 13.127 16.1288 13.247C16.4528 13.3595 18.1673 14.207 18.5198 14.3825C18.8723 14.5595 19.1048 14.6435 19.1903 14.792C19.2743 14.9405 19.2743 15.638 18.9848 16.457Z" fill="#FAFAFA"/>
</g>
<defs>
<clipPath id="clip0_1_974">
<rect width="24" height="24" fill="white"/>
</clipPath>
</defs>
</svg>
