<svg width="50" height="49" viewBox="0 0 50 49" fill="none" xmlns="http://www.w3.org/2000/svg">
<path d="M36.6703 48.9864H12.4759C5.62926 48.9864 0.0731201 43.4439 0.0731201 36.5836V12.4028C0.0731201 5.55614 5.62926 0 12.4759 0H36.6703C43.517 0 49.0731 5.55614 49.0731 12.4028V36.5972C49.0731 43.4438 43.517 48.9864 36.6703 48.9864Z" fill="#BA975F"/>
<path d="M36.8166 36.4846L27.4757 22.9144L26.4193 21.3797L19.738 11.672L19.1845 10.8678H10.9729L12.9756 13.7781L21.8597 26.6869L22.9161 28.2202L30.055 38.5922L30.6084 39.3957H38.8193L36.8166 36.4846ZM31.5845 37.5373L24.1682 26.7621L23.1118 25.2281L14.5059 12.7247H18.2077L25.1673 22.8363L26.2237 24.3703L35.2863 37.5373H31.5845Z" fill="white"/>
<path d="M23.1117 25.2281L24.1681 26.7621L22.9161 28.2195L13.3096 39.3949H10.9409L21.8597 26.6862L23.1117 25.2281Z" fill="white"/>
<path d="M37.8305 10.8678L27.4756 22.9144L26.2236 24.371L25.1672 22.837L26.4192 21.3797L33.4338 13.2157L35.4618 10.8678H37.8305Z" fill="white"/>
</svg>
